<svg width="295" height="288" viewBox="0 0 295 288" fill="none" xmlns="http://www.w3.org/2000/svg">
<g clip-path="url(#clip0_39_288)">
<g clip-path="url(#clip1_39_288)">
<path d="M18.144 10.376V14.728H12V33H6.496V14.728H0.416V10.376H18.144ZM28.8025 14.92C30.5732 14.92 32.1518 15.2933 33.5385 16.04C34.9465 16.7653 36.0452 17.8213 36.8345 19.208C37.6452 20.5947 38.0505 22.216 38.0505 24.072C38.0505 25.928 37.6452 27.5493 36.8345 28.936C36.0452 30.3227 34.9465 31.3893 33.5385 32.136C32.1518 32.8613 30.5732 33.224 28.8025 33.224C27.0318 33.224 25.4425 32.8613 24.0345 32.136C22.6265 31.3893 21.5172 30.3227 20.7065 28.936C19.9172 27.5493 19.5225 25.928 19.5225 24.072C19.5225 22.216 19.9172 20.5947 20.7065 19.208C21.5172 17.8213 22.6265 16.7653 24.0345 16.04C25.4425 15.2933 27.0318 14.92 28.8025 14.92ZM28.8025 19.656C27.7572 19.656 26.8718 20.04 26.1465 20.808C25.4425 21.5547 25.0905 22.6427 25.0905 24.072C25.0905 25.5013 25.4425 26.5893 26.1465 27.336C26.8718 28.0827 27.7572 28.456 28.8025 28.456C29.8478 28.456 30.7225 28.0827 31.4265 27.336C32.1305 26.5893 32.4825 25.5013 32.4825 24.072C32.4825 22.6427 32.1305 21.5547 31.4265 20.808C30.7225 20.04 29.8478 19.656 28.8025 19.656ZM52.216 14.952C54.264 14.952 55.8853 15.6347 57.08 17C58.296 18.3653 58.904 20.2427 58.904 22.632V33H53.432V23.272C53.432 22.0773 53.112 21.1493 52.472 20.488C51.8533 19.8053 51.0213 19.464 49.976 19.464C48.8667 19.464 47.9813 19.816 47.32 20.52C46.68 21.224 46.36 22.2267 46.36 23.528V33H40.888V15.144H46.36V18.408C46.872 17.3413 47.6293 16.4987 48.632 15.88C49.656 15.2613 50.8507 14.952 52.216 14.952ZM62.001 10.12C62.001 9.288 62.2997 8.60533 62.897 8.072C63.4943 7.51733 64.2837 7.24 65.265 7.24C66.2463 7.24 67.0357 7.51733 67.633 8.072C68.2303 8.60533 68.529 9.288 68.529 10.12C68.529 10.9307 68.2303 11.6133 67.633 12.168C67.0357 12.7013 66.2463 12.968 65.265 12.968C64.2837 12.968 63.4943 12.7013 62.897 12.168C62.2997 11.6133 62.001 10.9307 62.001 10.12ZM67.985 15.144V33H62.513V15.144H67.985ZM79.827 14.92C82.131 14.92 84.0617 15.56 85.619 16.84C87.1763 18.0987 88.1577 19.8373 88.563 22.056H82.771C82.6003 21.288 82.2483 20.6907 81.715 20.264C81.1817 19.8373 80.5097 19.624 79.699 19.624C78.739 19.624 77.9497 20.008 77.331 20.776C76.7123 21.5227 76.403 22.6213 76.403 24.072C76.403 25.5227 76.7123 26.632 77.331 27.4C77.9497 28.1467 78.739 28.52 79.699 28.52C80.5097 28.52 81.1817 28.3067 81.715 27.88C82.2483 27.4533 82.6003 26.856 82.771 26.088H88.563C88.1577 28.3067 87.1763 30.056 85.619 31.336C84.0617 32.5947 82.131 33.224 79.827 33.224C78.0777 33.224 76.5203 32.8613 75.155 32.136C73.811 31.3893 72.755 30.3227 71.987 28.936C71.219 27.5493 70.835 25.928 70.835 24.072C70.835 22.1947 71.2083 20.5733 71.955 19.208C72.723 17.8213 73.7897 16.7653 75.155 16.04C76.5203 15.2933 78.0777 14.92 79.827 14.92Z" fill="#172B4D"/>
<g clip-path="url(#clip2_39_288)">
<path d="M4.979 59.731C6.123 59.731 7.072 60.0257 7.826 60.615C8.58 61.2043 9.07833 62.006 9.321 63.02H7.397C7.19767 62.526 6.88567 62.136 6.461 61.85C6.045 61.564 5.54233 61.421 4.953 61.421C4.46767 61.421 4.03 61.5423 3.64 61.785C3.25 62.0277 2.94667 62.3743 2.73 62.825C2.51333 63.2757 2.405 63.8043 2.405 64.411C2.405 65.009 2.51333 65.5333 2.73 65.984C2.94667 66.4347 3.25 66.7813 3.64 67.024C4.03 67.2667 4.46767 67.388 4.953 67.388C5.54233 67.388 6.045 67.245 6.461 66.959C6.88567 66.673 7.19767 66.283 7.397 65.789H9.321C9.07833 66.803 8.58 67.6047 7.826 68.194C7.072 68.7833 6.123 69.078 4.979 69.078C4.10367 69.078 3.328 68.883 2.652 68.493C1.98467 68.0943 1.46467 67.5397 1.092 66.829C0.728 66.1183 0.546 65.3123 0.546 64.411C0.546 63.501 0.728 62.6907 1.092 61.98C1.46467 61.2693 1.98467 60.719 2.652 60.329C3.31933 59.9303 4.095 59.731 4.979 59.731ZM16.2863 67.154H12.6073L11.9573 69H10.0203L13.4003 59.926H15.4933L18.8603 69H16.9233L16.2863 67.154ZM15.7923 65.763L14.4403 61.889L13.0883 65.763H15.7923ZM27.6236 69H25.7906L21.6826 62.76V69H19.8496V59.822H21.6826L25.7906 66.114V59.822H27.6236V69ZM33.5852 59.692C34.4432 59.692 35.2189 59.8913 35.9122 60.29C36.6142 60.6887 37.1645 61.2477 37.5632 61.967C37.9705 62.6777 38.1742 63.4837 38.1742 64.385C38.1742 65.2863 37.9705 66.0967 37.5632 66.816C37.1645 67.5353 36.6142 68.0943 35.9122 68.493C35.2189 68.8917 34.4432 69.091 33.5852 69.091C32.7272 69.091 31.9472 68.8917 31.2452 68.493C30.5519 68.0943 30.0015 67.5353 29.5942 66.816C29.1955 66.0967 28.9962 65.2863 28.9962 64.385C28.9962 63.4837 29.1955 62.6777 29.5942 61.967C30.0015 61.2477 30.5519 60.6887 31.2452 60.29C31.9472 59.8913 32.7272 59.692 33.5852 59.692ZM33.5852 61.382C33.0479 61.382 32.5755 61.5033 32.1682 61.746C31.7609 61.9887 31.4402 62.3397 31.2062 62.799C30.9809 63.2497 30.8682 63.7783 30.8682 64.385C30.8682 64.9917 30.9809 65.5247 31.2062 65.984C31.4402 66.4347 31.7609 66.7813 32.1682 67.024C32.5755 67.2667 33.0479 67.388 33.5852 67.388C34.1225 67.388 34.5949 67.2667 35.0022 67.024C35.4095 66.7813 35.7259 66.4347 35.9512 65.984C36.1852 65.5247 36.3022 64.9917 36.3022 64.385C36.3022 63.7783 36.1852 63.2497 35.9512 62.799C35.7259 62.3397 35.4095 61.9887 35.0022 61.746C34.5949 61.5033 34.1225 61.382 33.5852 61.382ZM41.3857 65.594V69H39.5527V59.822H42.8937C43.977 59.822 44.7917 60.082 45.3377 60.602C45.8924 61.122 46.1697 61.8283 46.1697 62.721C46.1697 63.5963 45.8837 64.294 45.3117 64.814C44.7484 65.334 43.9424 65.594 42.8937 65.594H41.3857ZM42.6987 64.125C43.7734 64.125 44.3107 63.657 44.3107 62.721C44.3107 62.2617 44.185 61.9107 43.9337 61.668C43.6824 61.4253 43.2707 61.304 42.6987 61.304H41.3857V64.125H42.6987ZM54.7573 59.822L51.6503 65.789V69H49.8043V65.789L46.6843 59.822H48.7903L50.7403 63.839L52.6903 59.822H54.7573Z" fill="#344563"/>
<circle cx="71" cy="64" r="4" fill="#C1C7D0"/>
<path d="M92.954 64.268C93.5087 64.3807 93.9507 64.645 94.28 65.061C94.618 65.4683 94.787 65.9493 94.787 66.504C94.787 67.2753 94.527 67.8863 94.007 68.337C93.4957 68.779 92.7503 69 91.771 69H87.832V59.822H91.693C92.6203 59.822 93.331 60.0257 93.825 60.433C94.3277 60.8403 94.579 61.4123 94.579 62.149C94.579 62.721 94.4273 63.189 94.124 63.553C93.8293 63.917 93.4393 64.1553 92.954 64.268ZM89.665 63.67H91.316C91.7753 63.67 92.122 63.5703 92.356 63.371C92.5987 63.163 92.72 62.8683 92.72 62.487C92.72 62.1057 92.603 61.811 92.369 61.603C92.135 61.395 91.7753 61.291 91.29 61.291H89.665V63.67ZM91.407 67.505C91.8923 67.505 92.265 67.401 92.525 67.193C92.785 66.9763 92.915 66.6643 92.915 66.257C92.915 65.8497 92.7807 65.5377 92.512 65.321C92.252 65.0957 91.8793 64.983 91.394 64.983H89.665V67.505H91.407ZM98.8923 61.707C99.4989 61.707 100.019 61.85 100.452 62.136C100.886 62.422 101.193 62.8077 101.375 63.293V61.798H103.195V69H101.375V67.492C101.193 67.9773 100.886 68.3673 100.452 68.662C100.019 68.948 99.4989 69.091 98.8923 69.091C98.2856 69.091 97.7396 68.9437 97.2543 68.649C96.7689 68.3543 96.3876 67.9297 96.1103 67.375C95.8416 66.8117 95.7073 66.153 95.7073 65.399C95.7073 64.645 95.8416 63.9907 96.1103 63.436C96.3876 62.8727 96.7689 62.4437 97.2543 62.149C97.7396 61.8543 98.2856 61.707 98.8923 61.707ZM99.4643 63.306C98.8923 63.306 98.4329 63.4923 98.0863 63.865C97.7396 64.2377 97.5663 64.749 97.5663 65.399C97.5663 66.049 97.7396 66.5603 98.0863 66.933C98.4329 67.297 98.8923 67.479 99.4643 67.479C100.019 67.479 100.474 67.2927 100.829 66.92C101.193 66.5387 101.375 66.0317 101.375 65.399C101.375 64.7577 101.193 64.2507 100.829 63.878C100.474 63.4967 100.019 63.306 99.4643 63.306ZM108.093 61.707C109.021 61.707 109.792 61.9583 110.407 62.461C111.031 62.9637 111.421 63.6483 111.577 64.515H109.64C109.562 64.1337 109.385 63.8347 109.107 63.618C108.83 63.3927 108.479 63.28 108.054 63.28C107.569 63.28 107.162 63.462 106.832 63.826C106.512 64.1813 106.351 64.7057 106.351 65.399C106.351 66.0923 106.512 66.621 106.832 66.985C107.162 67.3403 107.569 67.518 108.054 67.518C108.479 67.518 108.83 67.4097 109.107 67.193C109.385 66.9677 109.562 66.6643 109.64 66.283H111.577C111.421 67.1497 111.031 67.8343 110.407 68.337C109.792 68.8397 109.021 69.091 108.093 69.091C107.391 69.091 106.767 68.9437 106.221 68.649C105.675 68.3457 105.251 67.9167 104.947 67.362C104.644 66.8073 104.492 66.153 104.492 65.399C104.492 64.645 104.644 63.9907 104.947 63.436C105.251 62.8727 105.675 62.4437 106.221 62.149C106.767 61.8543 107.391 61.707 108.093 61.707ZM117.092 69L114.713 65.854V69H112.88V59.38H114.713V64.788L117.079 61.798H119.25L116.221 65.386L119.328 69H117.092ZM124.882 61.278V63.657H128.132V65.061H124.882V67.531H128.522V69H123.049V59.822H128.522V61.278H124.882ZM134.169 61.694C135.001 61.694 135.664 61.967 136.158 62.513C136.652 63.059 136.899 63.826 136.899 64.814V69H135.079V65.022C135.079 64.45 134.932 64.008 134.637 63.696C134.342 63.3753 133.939 63.215 133.428 63.215C132.908 63.215 132.492 63.384 132.18 63.722C131.868 64.06 131.712 64.5453 131.712 65.178V69H129.879V61.798H131.712V63.241C131.903 62.7557 132.215 62.3787 132.648 62.11C133.09 61.8327 133.597 61.694 134.169 61.694ZM141.333 61.707C141.939 61.707 142.455 61.85 142.88 62.136C143.313 62.422 143.625 62.8077 143.816 63.293V59.38H145.636V69H143.816V67.492C143.625 67.9773 143.313 68.3673 142.88 68.662C142.455 68.948 141.939 69.091 141.333 69.091C140.726 69.091 140.18 68.9437 139.695 68.649C139.209 68.3543 138.828 67.9297 138.551 67.375C138.282 66.8117 138.148 66.153 138.148 65.399C138.148 64.645 138.282 63.9907 138.551 63.436C138.828 62.8727 139.209 62.4437 139.695 62.149C140.18 61.8543 140.726 61.707 141.333 61.707ZM141.905 63.306C141.333 63.306 140.873 63.4923 140.527 63.865C140.18 64.2377 140.007 64.749 140.007 65.399C140.007 66.049 140.18 66.5603 140.527 66.933C140.873 67.297 141.333 67.479 141.905 67.479C142.459 67.479 142.914 67.2927 143.27 66.92C143.634 66.5387 143.816 66.0317 143.816 65.399C143.816 64.7577 143.634 64.2507 143.27 63.878C142.914 63.4967 142.459 63.306 141.905 63.306ZM158.201 64.398C158.201 65.308 158.01 66.1097 157.629 66.803C157.248 67.4963 156.693 68.038 155.965 68.428C155.246 68.8093 154.388 69 153.391 69H150.128V59.822H153.391C154.388 59.822 155.246 60.0127 155.965 60.394C156.693 60.7667 157.248 61.2997 157.629 61.993C158.01 62.6777 158.201 63.4793 158.201 64.398ZM153.235 67.362C154.223 67.362 154.986 67.102 155.523 66.582C156.069 66.062 156.342 65.334 156.342 64.398C156.342 63.4533 156.069 62.721 155.523 62.201C154.986 61.681 154.223 61.421 153.235 61.421H151.961V67.362H153.235ZM166.346 65.126C166.346 65.308 166.325 65.516 166.281 65.75H161.003C161.029 66.3913 161.203 66.8637 161.523 67.167C161.844 67.4703 162.243 67.622 162.719 67.622C163.144 67.622 163.495 67.518 163.772 67.31C164.058 67.102 164.24 66.8203 164.318 66.465H166.255C166.16 66.9677 165.956 67.4183 165.644 67.817C165.332 68.2157 164.929 68.5277 164.435 68.753C163.95 68.9783 163.408 69.091 162.81 69.091C162.108 69.091 161.484 68.9437 160.938 68.649C160.392 68.3457 159.968 67.9167 159.664 67.362C159.361 66.8073 159.209 66.153 159.209 65.399C159.209 64.645 159.361 63.9907 159.664 63.436C159.968 62.8727 160.392 62.4437 160.938 62.149C161.484 61.8543 162.108 61.707 162.81 61.707C163.521 61.707 164.141 61.8543 164.669 62.149C165.207 62.4437 165.618 62.851 165.904 63.371C166.199 63.8823 166.346 64.4673 166.346 65.126ZM164.5 64.944C164.526 64.3547 164.37 63.9083 164.032 63.605C163.703 63.3017 163.296 63.15 162.81 63.15C162.316 63.15 161.9 63.3017 161.562 63.605C161.224 63.9083 161.038 64.3547 161.003 64.944H164.5ZM170.78 67.167L172.6 61.798H174.55L171.885 69H169.649L166.984 61.798H168.947L170.78 67.167Z" fill="#7A869A"/>
<circle cx="191" cy="64" r="4" fill="#C1C7D0"/>
<path d="M207.481 67.557C210.419 65.5203 211.888 63.8303 211.888 62.487C211.888 62.0797 211.788 61.759 211.589 61.525C211.398 61.291 211.095 61.174 210.679 61.174C209.821 61.174 209.366 61.759 209.314 62.929H207.533C207.585 61.8457 207.914 61.0267 208.521 60.472C209.128 59.9087 209.895 59.627 210.822 59.627C211.767 59.627 212.49 59.874 212.993 60.368C213.504 60.8533 213.76 61.5033 213.76 62.318C213.76 62.9593 213.569 63.605 213.188 64.255C212.815 64.8963 212.339 65.49 211.758 66.036C211.177 66.5733 210.566 67.037 209.925 67.427H213.942V68.922H207.481V67.557ZM214.974 64.333C214.974 67.4443 216.144 69 218.484 69C219.724 69 220.616 68.584 221.162 67.752C221.708 66.92 221.981 65.7803 221.981 64.333C221.981 62.8943 221.708 61.759 221.162 60.927C220.616 60.095 219.724 59.679 218.484 59.679C216.144 59.679 214.974 61.2303 214.974 64.333ZM220.174 64.333C220.174 65.2777 220.057 66.0057 219.823 66.517C219.598 67.0197 219.152 67.271 218.484 67.271C217.808 67.271 217.353 67.0197 217.119 66.517C216.894 66.0057 216.781 65.2777 216.781 64.333C216.781 63.397 216.894 62.6777 217.119 62.175C217.353 61.6637 217.808 61.408 218.484 61.408C219.152 61.408 219.598 61.6637 219.823 62.175C220.057 62.6777 220.174 63.397 220.174 64.333ZM222.733 61.538V59.822H226.035V69H224.111V61.538H222.733ZM234.044 61.252H229.689V63.566C229.888 63.332 230.161 63.1457 230.508 63.007C230.863 62.8597 231.253 62.786 231.678 62.786C232.311 62.786 232.835 62.9247 233.251 63.202C233.676 63.4707 233.988 63.8347 234.187 64.294C234.395 64.7447 234.499 65.2473 234.499 65.802C234.499 66.7813 234.222 67.5657 233.667 68.155C233.121 68.7443 232.337 69.039 231.314 69.039C230.647 69.039 230.066 68.922 229.572 68.688C229.078 68.4453 228.692 68.1117 228.415 67.687C228.138 67.2537 227.986 66.751 227.96 66.179H229.741C229.81 66.569 229.971 66.881 230.222 67.115C230.473 67.3403 230.807 67.453 231.223 67.453C231.726 67.453 232.098 67.3013 232.341 66.998C232.592 66.686 232.718 66.2743 232.718 65.763C232.718 65.2777 232.588 64.9007 232.328 64.632C232.068 64.3633 231.7 64.229 231.223 64.229C230.876 64.229 230.582 64.307 230.339 64.463C230.096 64.6103 229.919 64.8097 229.806 65.061H228.025V59.64H234.044V61.252Z" fill="#7A869A"/>
</g>
</g>
<path d="M7.29 106.555H2.64L1.755 109H0.285L4.2 98.62H5.745L9.645 109H8.175L7.29 106.555ZM6.9 105.49L4.965 100.15L3.03 105.49H6.9ZM18.1077 100.66C18.9077 100.66 19.5827 100.86 20.1327 101.26C20.6927 101.66 21.0827 102.195 21.3027 102.865V97.9H22.6677V109H21.3027V106.9C21.0827 107.57 20.6927 108.105 20.1327 108.505C19.5827 108.905 18.9077 109.105 18.1077 109.105C17.3777 109.105 16.7277 108.935 16.1577 108.595C15.5877 108.255 15.1377 107.77 14.8077 107.14C14.4877 106.5 14.3277 105.75 14.3277 104.89C14.3277 104.03 14.4877 103.28 14.8077 102.64C15.1377 102 15.5877 101.51 16.1577 101.17C16.7277 100.83 17.3777 100.66 18.1077 100.66ZM18.4977 101.875C17.6577 101.875 16.9827 102.145 16.4727 102.685C15.9727 103.215 15.7227 103.95 15.7227 104.89C15.7227 105.83 15.9727 106.57 16.4727 107.11C16.9827 107.64 17.6577 107.905 18.4977 107.905C19.0377 107.905 19.5177 107.78 19.9377 107.53C20.3677 107.28 20.7027 106.93 20.9427 106.48C21.1827 106.02 21.3027 105.49 21.3027 104.89C21.3027 104.29 21.1827 103.76 20.9427 103.3C20.7027 102.84 20.3677 102.49 19.9377 102.25C19.5177 102 19.0377 101.875 18.4977 101.875ZM28.2151 100.66C29.0151 100.66 29.6901 100.86 30.2401 101.26C30.8001 101.66 31.1901 102.195 31.4101 102.865V100.765H32.7751V109H31.4101V106.9C31.1901 107.57 30.8001 108.105 30.2401 108.505C29.6901 108.905 29.0151 109.105 28.2151 109.105C27.4851 109.105 26.8351 108.935 26.2651 108.595C25.6951 108.255 25.2451 107.77 24.9151 107.14C24.5951 106.5 24.4351 105.75 24.4351 104.89C24.4351 104.03 24.5951 103.28 24.9151 102.64C25.2451 102 25.6951 101.51 26.2651 101.17C26.8351 100.83 27.4851 100.66 28.2151 100.66ZM28.6051 101.875C27.7651 101.875 27.0901 102.145 26.5801 102.685C26.0801 103.215 25.8301 103.95 25.8301 104.89C25.8301 105.83 26.0801 106.57 26.5801 107.11C27.0901 107.64 27.7651 107.905 28.6051 107.905C29.1451 107.905 29.6251 107.78 30.0451 107.53C30.4751 107.28 30.8101 106.93 31.0501 106.48C31.2901 106.02 31.4101 105.49 31.4101 104.89C31.4101 104.29 31.2901 103.76 31.0501 103.3C30.8101 102.84 30.4751 102.49 30.0451 102.25C29.6251 102 29.1451 101.875 28.6051 101.875ZM34.7075 98.35C34.7075 98.1 34.7925 97.9 34.9625 97.75C35.1325 97.59 35.3575 97.51 35.6375 97.51C35.9175 97.51 36.1425 97.59 36.3125 97.75C36.4825 97.9 36.5675 98.1 36.5675 98.35C36.5675 98.6 36.4825 98.805 36.3125 98.965C36.1425 99.115 35.9175 99.19 35.6375 99.19C35.3575 99.19 35.1325 99.115 34.9625 98.965C34.7925 98.805 34.7075 98.6 34.7075 98.35ZM36.3125 100.765V109H34.9475V100.765H36.3125ZM39.8721 97.9V109H38.5071V97.9H39.8721ZM42.6367 100.765L45.3067 107.245L47.7817 100.765H49.2967L44.4067 112.9H42.8617L44.5717 108.865L41.1067 100.765H42.6367ZM56.8342 100.66C57.7642 100.66 58.5092 100.905 59.0692 101.395C59.6392 101.875 59.9842 102.525 60.1042 103.345H58.7992C58.7392 102.855 58.5342 102.455 58.1842 102.145C57.8442 101.825 57.3842 101.665 56.8042 101.665C56.3142 101.665 55.9292 101.785 55.6492 102.025C55.3792 102.255 55.2442 102.57 55.2442 102.97C55.2442 103.27 55.3342 103.515 55.5142 103.705C55.7042 103.885 55.9342 104.025 56.2042 104.125C56.4842 104.215 56.8642 104.315 57.3442 104.425C57.9542 104.565 58.4442 104.71 58.8142 104.86C59.1942 105 59.5142 105.23 59.7742 105.55C60.0442 105.87 60.1792 106.3 60.1792 106.84C60.1792 107.51 59.9242 108.055 59.4142 108.475C58.9142 108.895 58.2442 109.105 57.4042 109.105C56.4242 109.105 55.6242 108.87 55.0042 108.4C54.3842 107.93 54.0192 107.275 53.9092 106.435H55.2292C55.2792 106.935 55.4942 107.34 55.8742 107.65C56.2642 107.96 56.7742 108.115 57.4042 108.115C57.8742 108.115 58.2392 107.995 58.4992 107.755C58.7692 107.515 58.9042 107.2 58.9042 106.81C58.9042 106.49 58.8092 106.235 58.6192 106.045C58.4292 105.855 58.1942 105.71 57.9142 105.61C57.6342 105.51 57.2492 105.405 56.7592 105.295C56.1492 105.155 55.6592 105.015 55.2892 104.875C54.9292 104.735 54.6192 104.515 54.3592 104.215C54.1092 103.905 53.9842 103.49 53.9842 102.97C53.9842 102.28 54.2392 101.725 54.7492 101.305C55.2592 100.875 55.9542 100.66 56.8342 100.66ZM69.5782 104.425C69.5782 104.715 69.5582 104.965 69.5182 105.175H62.9332C62.9632 106.115 63.2282 106.82 63.7282 107.29C64.2382 107.76 64.8582 107.995 65.5882 107.995C66.2482 107.995 66.7982 107.83 67.2382 107.5C67.6882 107.16 67.9632 106.71 68.0632 106.15H69.5182C69.4182 106.72 69.1932 107.23 68.8432 107.68C68.5032 108.13 68.0582 108.48 67.5082 108.73C66.9582 108.98 66.3382 109.105 65.6482 109.105C64.8582 109.105 64.1582 108.935 63.5482 108.595C62.9382 108.255 62.4582 107.77 62.1082 107.14C61.7682 106.5 61.5982 105.75 61.5982 104.89C61.5982 104.03 61.7682 103.28 62.1082 102.64C62.4582 102 62.9382 101.51 63.5482 101.17C64.1582 100.83 64.8582 100.66 65.6482 100.66C66.4482 100.66 67.1432 100.83 67.7332 101.17C68.3332 101.51 68.7882 101.965 69.0982 102.535C69.4182 103.105 69.5782 103.735 69.5782 104.425ZM68.1982 104.515C68.2282 103.905 68.1282 103.395 67.8982 102.985C67.6682 102.575 67.3532 102.27 66.9532 102.07C66.5532 101.87 66.1182 101.77 65.6482 101.77C64.8982 101.77 64.2682 102.005 63.7582 102.475C63.2482 102.935 62.9732 103.615 62.9332 104.515H68.1982ZM72.7286 97.9V109H71.3636V97.9H72.7286ZM82.4981 104.425C82.4981 104.715 82.4781 104.965 82.4381 105.175H75.8531C75.8831 106.115 76.1481 106.82 76.6481 107.29C77.1581 107.76 77.7781 107.995 78.5081 107.995C79.1681 107.995 79.7181 107.83 80.1581 107.5C80.6081 107.16 80.8831 106.71 80.9831 106.15H82.4381C82.3381 106.72 82.1131 107.23 81.7631 107.68C81.4231 108.13 80.9781 108.48 80.4281 108.73C79.8781 108.98 79.2581 109.105 78.5681 109.105C77.7781 109.105 77.0781 108.935 76.4681 108.595C75.8581 108.255 75.3781 107.77 75.0281 107.14C74.6881 106.5 74.5181 105.75 74.5181 104.89C74.5181 104.03 74.6881 103.28 75.0281 102.64C75.3781 102 75.8581 101.51 76.4681 101.17C77.0781 100.83 77.7781 100.66 78.5681 100.66C79.3681 100.66 80.0631 100.83 80.6531 101.17C81.2531 101.51 81.7081 101.965 82.0181 102.535C82.3381 103.105 82.4981 103.735 82.4981 104.425ZM81.1181 104.515C81.1481 103.905 81.0481 103.395 80.8181 102.985C80.5881 102.575 80.2731 102.27 79.8731 102.07C79.4731 101.87 79.0381 101.77 78.5681 101.77C77.8181 101.77 77.1881 102.005 76.6781 102.475C76.1681 102.935 75.8931 103.615 75.8531 104.515H81.1181ZM87.9285 100.66C88.9785 100.66 89.8485 100.94 90.5385 101.5C91.2285 102.06 91.6535 102.81 91.8135 103.75H90.3735C90.2735 103.16 89.9985 102.7 89.5485 102.37C89.1085 102.03 88.5585 101.86 87.8985 101.86C87.4185 101.86 86.9785 101.97 86.5785 102.19C86.1885 102.41 85.8735 102.75 85.6335 103.21C85.3935 103.66 85.2735 104.22 85.2735 104.89C85.2735 105.56 85.3935 106.125 85.6335 106.585C85.8735 107.035 86.1885 107.37 86.5785 107.59C86.9785 107.81 87.4185 107.92 87.8985 107.92C88.5585 107.92 89.1085 107.75 89.5485 107.41C89.9985 107.07 90.2735 106.605 90.3735 106.015H91.8135C91.6535 106.965 91.2285 107.72 90.5385 108.28C89.8485 108.83 88.9785 109.105 87.9285 109.105C87.1385 109.105 86.4385 108.935 85.8285 108.595C85.2185 108.255 84.7385 107.77 84.3885 107.14C84.0485 106.5 83.8785 105.75 83.8785 104.89C83.8785 104.03 84.0485 103.28 84.3885 102.64C84.7385 102 85.2185 101.51 85.8285 101.17C86.4385 100.83 87.1385 100.66 87.9285 100.66ZM97.5299 107.8V109H96.5099C95.6699 109 95.0399 108.8 94.6199 108.4C94.2099 108 94.0049 107.33 94.0049 106.39V101.95H92.7749V100.765H94.0049V98.71H95.3849V100.765H97.5149V101.95H95.3849V106.42C95.3849 106.95 95.4799 107.315 95.6699 107.515C95.8699 107.705 96.2099 107.8 96.6899 107.8H97.5299ZM98.9556 98.35C98.9556 98.1 99.0406 97.9 99.2106 97.75C99.3806 97.59 99.6056 97.51 99.8856 97.51C100.166 97.51 100.391 97.59 100.561 97.75C100.731 97.9 100.816 98.1 100.816 98.35C100.816 98.6 100.731 98.805 100.561 98.965C100.391 99.115 100.166 99.19 99.8856 99.19C99.6056 99.19 99.3806 99.115 99.2106 98.965C99.0406 98.805 98.9556 98.6 98.9556 98.35ZM100.561 100.765V109H99.1956V100.765H100.561ZM106.49 100.66C107.28 100.66 107.985 100.83 108.605 101.17C109.235 101.51 109.725 102 110.075 102.64C110.435 103.28 110.615 104.03 110.615 104.89C110.615 105.75 110.435 106.5 110.075 107.14C109.725 107.77 109.235 108.255 108.605 108.595C107.985 108.935 107.28 109.105 106.49 109.105C105.7 109.105 104.99 108.935 104.36 108.595C103.74 108.255 103.25 107.77 102.89 107.14C102.53 106.5 102.35 105.75 102.35 104.89C102.35 104.03 102.53 103.28 102.89 102.64C103.25 102 103.74 101.51 104.36 101.17C104.99 100.83 105.7 100.66 106.49 100.66ZM106.49 101.86C106 101.86 105.545 101.97 105.125 102.19C104.715 102.41 104.38 102.75 104.12 103.21C103.87 103.66 103.745 104.22 103.745 104.89C103.745 105.55 103.87 106.11 104.12 106.57C104.38 107.02 104.715 107.355 105.125 107.575C105.545 107.795 106 107.905 106.49 107.905C106.98 107.905 107.43 107.795 107.84 107.575C108.26 107.355 108.595 107.02 108.845 106.57C109.105 106.11 109.235 105.55 109.235 104.89C109.235 104.22 109.105 103.66 108.845 103.21C108.595 102.75 108.26 102.41 107.84 102.19C107.43 101.97 106.98 101.86 106.49 101.86ZM116.729 100.63C117.689 100.63 118.464 100.94 119.054 101.56C119.644 102.17 119.939 103.055 119.939 104.215V109H118.574V104.335C118.574 103.515 118.364 102.885 117.944 102.445C117.524 102.005 116.954 101.785 116.234 101.785C115.484 101.785 114.884 102.03 114.434 102.52C113.984 103 113.759 103.705 113.759 104.635V109H112.394V100.765H113.759V102.715C113.969 102.045 114.339 101.53 114.869 101.17C115.409 100.81 116.029 100.63 116.729 100.63ZM129.474 100.66C130.264 100.66 130.969 100.83 131.589 101.17C132.219 101.51 132.709 102 133.059 102.64C133.419 103.28 133.599 104.03 133.599 104.89C133.599 105.75 133.419 106.5 133.059 107.14C132.709 107.77 132.219 108.255 131.589 108.595C130.969 108.935 130.264 109.105 129.474 109.105C128.684 109.105 127.974 108.935 127.344 108.595C126.724 108.255 126.234 107.77 125.874 107.14C125.514 106.5 125.334 105.75 125.334 104.89C125.334 104.03 125.514 103.28 125.874 102.64C126.234 102 126.724 101.51 127.344 101.17C127.974 100.83 128.684 100.66 129.474 100.66ZM129.474 101.86C128.984 101.86 128.529 101.97 128.109 102.19C127.699 102.41 127.364 102.75 127.104 103.21C126.854 103.66 126.729 104.22 126.729 104.89C126.729 105.55 126.854 106.11 127.104 106.57C127.364 107.02 127.699 107.355 128.109 107.575C128.529 107.795 128.984 107.905 129.474 107.905C129.964 107.905 130.414 107.795 130.824 107.575C131.244 107.355 131.579 107.02 131.829 106.57C132.089 106.11 132.219 105.55 132.219 104.89C132.219 104.22 132.089 103.66 131.829 103.21C131.579 102.75 131.244 102.41 130.824 102.19C130.414 101.97 129.964 101.86 129.474 101.86ZM139.022 98.815C138.292 98.805 137.782 98.93 137.492 99.19C137.212 99.45 137.072 99.9 137.072 100.54V100.765H139.022V101.965H137.072V109H135.707V101.965H134.522V100.765H135.707V100.435C135.707 98.465 136.812 97.525 139.022 97.615V98.815ZM148.755 100.66C149.485 100.66 150.135 100.83 150.705 101.17C151.275 101.51 151.72 102 152.04 102.64C152.37 103.28 152.535 104.03 152.535 104.89C152.535 105.75 152.37 106.5 152.04 107.14C151.72 107.77 151.275 108.255 150.705 108.595C150.135 108.935 149.485 109.105 148.755 109.105C147.955 109.105 147.275 108.905 146.715 108.505C146.165 108.095 145.785 107.56 145.575 106.9V112.9H144.21V100.765H145.575V102.865C145.785 102.205 146.165 101.675 146.715 101.275C147.275 100.865 147.955 100.66 148.755 100.66ZM148.365 101.875C147.835 101.875 147.355 102 146.925 102.25C146.495 102.49 146.16 102.84 145.92 103.3C145.68 103.76 145.56 104.29 145.56 104.89C145.56 105.49 145.68 106.02 145.92 106.48C146.16 106.93 146.495 107.28 146.925 107.53C147.355 107.78 147.835 107.905 148.365 107.905C149.215 107.905 149.89 107.64 150.39 107.11C150.9 106.57 151.155 105.83 151.155 104.89C151.155 103.95 150.9 103.215 150.39 102.685C149.89 102.145 149.215 101.875 148.365 101.875ZM155.683 102.43C155.953 101.86 156.348 101.42 156.868 101.11C157.388 100.79 158.008 100.63 158.728 100.63V102.115H158.308C157.538 102.115 156.908 102.315 156.418 102.715C155.928 103.105 155.683 103.755 155.683 104.665V109H154.318V100.765H155.683V102.43ZM159.834 98.35C159.834 98.1 159.919 97.9 160.089 97.75C160.259 97.59 160.484 97.51 160.764 97.51C161.044 97.51 161.269 97.59 161.439 97.75C161.609 97.9 161.694 98.1 161.694 98.35C161.694 98.6 161.609 98.805 161.439 98.965C161.269 99.115 161.044 99.19 160.764 99.19C160.484 99.19 160.259 99.115 160.089 98.965C159.919 98.805 159.834 98.6 159.834 98.35ZM161.439 100.765V109H160.074V100.765H161.439ZM166.829 107.545L169.379 100.765H170.849L167.624 109H166.004L162.779 100.765H164.249L166.829 107.545ZM175.564 100.66C176.364 100.66 177.039 100.86 177.589 101.26C178.149 101.66 178.539 102.195 178.759 102.865V100.765H180.124V109H178.759V106.9C178.539 107.57 178.149 108.105 177.589 108.505C177.039 108.905 176.364 109.105 175.564 109.105C174.834 109.105 174.184 108.935 173.614 108.595C173.044 108.255 172.594 107.77 172.264 107.14C171.944 106.5 171.784 105.75 171.784 104.89C171.784 104.03 171.944 103.28 172.264 102.64C172.594 102 173.044 101.51 173.614 101.17C174.184 100.83 174.834 100.66 175.564 100.66ZM175.954 101.875C175.114 101.875 174.439 102.145 173.929 102.685C173.429 103.215 173.179 103.95 173.179 104.89C173.179 105.83 173.429 106.57 173.929 107.11C174.439 107.64 175.114 107.905 175.954 107.905C176.494 107.905 176.974 107.78 177.394 107.53C177.824 107.28 178.159 106.93 178.399 106.48C178.639 106.02 178.759 105.49 178.759 104.89C178.759 104.29 178.639 103.76 178.399 103.3C178.159 102.84 177.824 102.49 177.394 102.25C176.974 102 176.494 101.875 175.954 101.875ZM186.226 107.8V109H185.206C184.366 109 183.736 108.8 183.316 108.4C182.906 108 182.701 107.33 182.701 106.39V101.95H181.471V100.765H182.701V98.71H184.081V100.765H186.211V101.95H184.081V106.42C184.081 106.95 184.176 107.315 184.366 107.515C184.566 107.705 184.906 107.8 185.386 107.8H186.226ZM195.467 104.425C195.467 104.715 195.447 104.965 195.407 105.175H188.822C188.852 106.115 189.117 106.82 189.617 107.29C190.127 107.76 190.747 107.995 191.477 107.995C192.137 107.995 192.687 107.83 193.127 107.5C193.577 107.16 193.852 106.71 193.952 106.15H195.407C195.307 106.72 195.082 107.23 194.732 107.68C194.392 108.13 193.947 108.48 193.397 108.73C192.847 108.98 192.227 109.105 191.537 109.105C190.747 109.105 190.047 108.935 189.437 108.595C188.827 108.255 188.347 107.77 187.997 107.14C187.657 106.5 187.487 105.75 187.487 104.89C187.487 104.03 187.657 103.28 187.997 102.64C188.347 102 188.827 101.51 189.437 101.17C190.047 100.83 190.747 100.66 191.537 100.66C192.337 100.66 193.032 100.83 193.622 101.17C194.222 101.51 194.677 101.965 194.987 102.535C195.307 103.105 195.467 103.735 195.467 104.425ZM194.087 104.515C194.117 103.905 194.017 103.395 193.787 102.985C193.557 102.575 193.242 102.27 192.842 102.07C192.442 101.87 192.007 101.77 191.537 101.77C190.787 101.77 190.157 102.005 189.647 102.475C189.137 102.935 188.862 103.615 188.822 104.515H194.087ZM198.617 97.9V109H197.252V97.9H198.617ZM201.382 100.765L204.052 107.245L206.527 100.765H208.042L203.152 112.9H201.607L203.317 108.865L199.852 100.765H201.382ZM5.64 124.66C6.37 124.66 7.02 124.83 7.59 125.17C8.16 125.51 8.605 126 8.925 126.64C9.255 127.28 9.42 128.03 9.42 128.89C9.42 129.75 9.255 130.5 8.925 131.14C8.605 131.77 8.16 132.255 7.59 132.595C7.02 132.935 6.37 133.105 5.64 133.105C4.84 133.105 4.16 132.905 3.6 132.505C3.05 132.095 2.67 131.56 2.46 130.9V136.9H1.095V124.765H2.46V126.865C2.67 126.205 3.05 125.675 3.6 125.275C4.16 124.865 4.84 124.66 5.64 124.66ZM5.25 125.875C4.72 125.875 4.24 126 3.81 126.25C3.38 126.49 3.045 126.84 2.805 127.3C2.565 127.76 2.445 128.29 2.445 128.89C2.445 129.49 2.565 130.02 2.805 130.48C3.045 130.93 3.38 131.28 3.81 131.53C4.24 131.78 4.72 131.905 5.25 131.905C6.1 131.905 6.775 131.64 7.275 131.11C7.785 130.57 8.04 129.83 8.04 128.89C8.04 127.95 7.785 127.215 7.275 126.685C6.775 126.145 6.1 125.875 5.25 125.875ZM18.7774 128.425C18.7774 128.715 18.7574 128.965 18.7174 129.175H12.1324C12.1624 130.115 12.4274 130.82 12.9274 131.29C13.4374 131.76 14.0574 131.995 14.7874 131.995C15.4474 131.995 15.9974 131.83 16.4374 131.5C16.8874 131.16 17.1624 130.71 17.2624 130.15H18.7174C18.6174 130.72 18.3924 131.23 18.0424 131.68C17.7024 132.13 17.2574 132.48 16.7074 132.73C16.1574 132.98 15.5374 133.105 14.8474 133.105C14.0574 133.105 13.3574 132.935 12.7474 132.595C12.1374 132.255 11.6574 131.77 11.3074 131.14C10.9674 130.5 10.7974 129.75 10.7974 128.89C10.7974 128.03 10.9674 127.28 11.3074 126.64C11.6574 126 12.1374 125.51 12.7474 125.17C13.3574 124.83 14.0574 124.66 14.8474 124.66C15.6474 124.66 16.3424 124.83 16.9324 125.17C17.5324 125.51 17.9874 125.965 18.2974 126.535C18.6174 127.105 18.7774 127.735 18.7774 128.425ZM17.3974 128.515C17.4274 127.905 17.3274 127.395 17.0974 126.985C16.8674 126.575 16.5524 126.27 16.1524 126.07C15.7524 125.87 15.3174 125.77 14.8474 125.77C14.0974 125.77 13.4674 126.005 12.9574 126.475C12.4474 126.935 12.1724 127.615 12.1324 128.515H17.3974ZM21.9278 126.43C22.1978 125.86 22.5928 125.42 23.1128 125.11C23.6328 124.79 24.2528 124.63 24.9728 124.63V126.115H24.5528C23.7828 126.115 23.1528 126.315 22.6628 126.715C22.1728 127.105 21.9278 127.755 21.9278 128.665V133H20.5628V124.765H21.9278V126.43ZM28.8996 124.66C29.8296 124.66 30.5746 124.905 31.1346 125.395C31.7046 125.875 32.0496 126.525 32.1696 127.345H30.8646C30.8046 126.855 30.5996 126.455 30.2496 126.145C29.9096 125.825 29.4496 125.665 28.8696 125.665C28.3796 125.665 27.9946 125.785 27.7146 126.025C27.4446 126.255 27.3096 126.57 27.3096 126.97C27.3096 127.27 27.3996 127.515 27.5796 127.705C27.7696 127.885 27.9996 128.025 28.2696 128.125C28.5496 128.215 28.9296 128.315 29.4096 128.425C30.0196 128.565 30.5096 128.71 30.8796 128.86C31.2596 129 31.5796 129.23 31.8396 129.55C32.1096 129.87 32.2446 130.3 32.2446 130.84C32.2446 131.51 31.9896 132.055 31.4796 132.475C30.9796 132.895 30.3096 133.105 29.4696 133.105C28.4896 133.105 27.6896 132.87 27.0696 132.4C26.4496 131.93 26.0846 131.275 25.9746 130.435H27.2946C27.3446 130.935 27.5596 131.34 27.9396 131.65C28.3296 131.96 28.8396 132.115 29.4696 132.115C29.9396 132.115 30.3046 131.995 30.5646 131.755C30.8346 131.515 30.9696 131.2 30.9696 130.81C30.9696 130.49 30.8746 130.235 30.6846 130.045C30.4946 129.855 30.2596 129.71 29.9796 129.61C29.6996 129.51 29.3146 129.405 28.8246 129.295C28.2146 129.155 27.7246 129.015 27.3546 128.875C26.9946 128.735 26.6846 128.515 26.4246 128.215C26.1746 127.905 26.0496 127.49 26.0496 126.97C26.0496 126.28 26.3046 125.725 26.8146 125.305C27.3246 124.875 28.0196 124.66 28.8996 124.66ZM37.8036 124.66C38.5936 124.66 39.2986 124.83 39.9186 125.17C40.5486 125.51 41.0386 126 41.3886 126.64C41.7486 127.28 41.9286 128.03 41.9286 128.89C41.9286 129.75 41.7486 130.5 41.3886 131.14C41.0386 131.77 40.5486 132.255 39.9186 132.595C39.2986 132.935 38.5936 133.105 37.8036 133.105C37.0136 133.105 36.3036 132.935 35.6736 132.595C35.0536 132.255 34.5636 131.77 34.2036 131.14C33.8436 130.5 33.6636 129.75 33.6636 128.89C33.6636 128.03 33.8436 127.28 34.2036 126.64C34.5636 126 35.0536 125.51 35.6736 125.17C36.3036 124.83 37.0136 124.66 37.8036 124.66ZM37.8036 125.86C37.3136 125.86 36.8586 125.97 36.4386 126.19C36.0286 126.41 35.6936 126.75 35.4336 127.21C35.1836 127.66 35.0586 128.22 35.0586 128.89C35.0586 129.55 35.1836 130.11 35.4336 130.57C35.6936 131.02 36.0286 131.355 36.4386 131.575C36.8586 131.795 37.3136 131.905 37.8036 131.905C38.2936 131.905 38.7436 131.795 39.1536 131.575C39.5736 131.355 39.9086 131.02 40.1586 130.57C40.4186 130.11 40.5486 129.55 40.5486 128.89C40.5486 128.22 40.4186 127.66 40.1586 127.21C39.9086 126.75 39.5736 126.41 39.1536 126.19C38.7436 125.97 38.2936 125.86 37.8036 125.86ZM48.0423 124.63C49.0023 124.63 49.7773 124.94 50.3673 125.56C50.9573 126.17 51.2523 127.055 51.2523 128.215V133H49.8873V128.335C49.8873 127.515 49.6773 126.885 49.2573 126.445C48.8373 126.005 48.2673 125.785 47.5473 125.785C46.7973 125.785 46.1973 126.03 45.7473 126.52C45.2973 127 45.0723 127.705 45.0723 128.635V133H43.7073V124.765H45.0723V126.715C45.2823 126.045 45.6523 125.53 46.1823 125.17C46.7223 124.81 47.3423 124.63 48.0423 124.63ZM56.721 124.66C57.521 124.66 58.196 124.86 58.746 125.26C59.306 125.66 59.696 126.195 59.916 126.865V124.765H61.281V133H59.916V130.9C59.696 131.57 59.306 132.105 58.746 132.505C58.196 132.905 57.521 133.105 56.721 133.105C55.991 133.105 55.341 132.935 54.771 132.595C54.201 132.255 53.751 131.77 53.421 131.14C53.101 130.5 52.941 129.75 52.941 128.89C52.941 128.03 53.101 127.28 53.421 126.64C53.751 126 54.201 125.51 54.771 125.17C55.341 124.83 55.991 124.66 56.721 124.66ZM57.111 125.875C56.271 125.875 55.596 126.145 55.086 126.685C54.586 127.215 54.336 127.95 54.336 128.89C54.336 129.83 54.586 130.57 55.086 131.11C55.596 131.64 56.271 131.905 57.111 131.905C57.651 131.905 58.131 131.78 58.551 131.53C58.981 131.28 59.316 130.93 59.556 130.48C59.796 130.02 59.916 129.49 59.916 128.89C59.916 128.29 59.796 127.76 59.556 127.3C59.316 126.84 58.981 126.49 58.551 126.25C58.131 126 57.651 125.875 57.111 125.875ZM64.8184 121.9V133H63.4534V121.9H64.8184ZM66.773 122.35C66.773 122.1 66.858 121.9 67.028 121.75C67.198 121.59 67.423 121.51 67.703 121.51C67.983 121.51 68.208 121.59 68.378 121.75C68.548 121.9 68.633 122.1 68.633 122.35C68.633 122.6 68.548 122.805 68.378 122.965C68.208 123.115 67.983 123.19 67.703 123.19C67.423 123.19 67.198 123.115 67.028 122.965C66.858 122.805 66.773 122.6 66.773 122.35ZM68.378 124.765V133H67.013V124.765H68.378ZM71.3675 131.845H75.7775V133H69.8675V131.905L74.0675 125.92H69.9875V124.765H75.6275V125.875L71.3675 131.845ZM84.8419 128.425C84.8419 128.715 84.8219 128.965 84.7819 129.175H78.1969C78.2269 130.115 78.4919 130.82 78.9919 131.29C79.5019 131.76 80.1219 131.995 80.8519 131.995C81.5119 131.995 82.0619 131.83 82.5019 131.5C82.9519 131.16 83.2269 130.71 83.3269 130.15H84.7819C84.6819 130.72 84.4569 131.23 84.1069 131.68C83.7669 132.13 83.3219 132.48 82.7719 132.73C82.2219 132.98 81.6019 133.105 80.9119 133.105C80.1219 133.105 79.4219 132.935 78.8119 132.595C78.2019 132.255 77.7219 131.77 77.3719 131.14C77.0319 130.5 76.8619 129.75 76.8619 128.89C76.8619 128.03 77.0319 127.28 77.3719 126.64C77.7219 126 78.2019 125.51 78.8119 125.17C79.4219 124.83 80.1219 124.66 80.9119 124.66C81.7119 124.66 82.4069 124.83 82.9969 125.17C83.5969 125.51 84.0519 125.965 84.3619 126.535C84.6819 127.105 84.8419 127.735 84.8419 128.425ZM83.4619 128.515C83.4919 127.905 83.3919 127.395 83.1619 126.985C82.9319 126.575 82.6169 126.27 82.2169 126.07C81.8169 125.87 81.3819 125.77 80.9119 125.77C80.1619 125.77 79.5319 126.005 79.0219 126.475C78.5119 126.935 78.2369 127.615 78.1969 128.515H83.4619ZM90.0022 124.66C90.8022 124.66 91.4772 124.86 92.0272 125.26C92.5872 125.66 92.9772 126.195 93.1972 126.865V121.9H94.5622V133H93.1972V130.9C92.9772 131.57 92.5872 132.105 92.0272 132.505C91.4772 132.905 90.8022 133.105 90.0022 133.105C89.2722 133.105 88.6222 132.935 88.0522 132.595C87.4822 132.255 87.0322 131.77 86.7022 131.14C86.3822 130.5 86.2222 129.75 86.2222 128.89C86.2222 128.03 86.3822 127.28 86.7022 126.64C87.0322 126 87.4822 125.51 88.0522 125.17C88.6222 124.83 89.2722 124.66 90.0022 124.66ZM90.3922 125.875C89.5522 125.875 88.8772 126.145 88.3672 126.685C87.8672 127.215 87.6172 127.95 87.6172 128.89C87.6172 129.83 87.8672 130.57 88.3672 131.11C88.8772 131.64 89.5522 131.905 90.3922 131.905C90.9322 131.905 91.4122 131.78 91.8322 131.53C92.2622 131.28 92.5972 130.93 92.8372 130.48C93.0772 130.02 93.1972 129.49 93.1972 128.89C93.1972 128.29 93.0772 127.76 92.8372 127.3C92.5972 126.84 92.2622 126.49 91.8322 126.25C91.4122 126 90.9322 125.875 90.3922 125.875ZM101.806 126.43C102.076 125.86 102.471 125.42 102.991 125.11C103.511 124.79 104.131 124.63 104.851 124.63V126.115H104.431C103.661 126.115 103.031 126.315 102.541 126.715C102.051 127.105 101.806 127.755 101.806 128.665V133H100.441V124.765H101.806V126.43ZM113.773 128.425C113.773 128.715 113.753 128.965 113.713 129.175H107.128C107.158 130.115 107.423 130.82 107.923 131.29C108.433 131.76 109.053 131.995 109.783 131.995C110.443 131.995 110.993 131.83 111.433 131.5C111.883 131.16 112.158 130.71 112.258 130.15H113.713C113.613 130.72 113.388 131.23 113.038 131.68C112.698 132.13 112.253 132.48 111.703 132.73C111.153 132.98 110.533 133.105 109.843 133.105C109.053 133.105 108.353 132.935 107.743 132.595C107.133 132.255 106.653 131.77 106.303 131.14C105.963 130.5 105.793 129.75 105.793 128.89C105.793 128.03 105.963 127.28 106.303 126.64C106.653 126 107.133 125.51 107.743 125.17C108.353 124.83 109.053 124.66 109.843 124.66C110.643 124.66 111.338 124.83 111.928 125.17C112.528 125.51 112.983 125.965 113.293 126.535C113.613 127.105 113.773 127.735 113.773 128.425ZM112.393 128.515C112.423 127.905 112.323 127.395 112.093 126.985C111.863 126.575 111.548 126.27 111.148 126.07C110.748 125.87 110.313 125.77 109.843 125.77C109.093 125.77 108.463 126.005 107.953 126.475C107.443 126.935 107.168 127.615 107.128 128.515H112.393ZM118.933 124.66C119.733 124.66 120.408 124.86 120.958 125.26C121.518 125.66 121.908 126.195 122.128 126.865V124.765H123.493V133H122.128V130.9C121.908 131.57 121.518 132.105 120.958 132.505C120.408 132.905 119.733 133.105 118.933 133.105C118.203 133.105 117.553 132.935 116.983 132.595C116.413 132.255 115.963 131.77 115.633 131.14C115.313 130.5 115.153 129.75 115.153 128.89C115.153 128.03 115.313 127.28 115.633 126.64C115.963 126 116.413 125.51 116.983 125.17C117.553 124.83 118.203 124.66 118.933 124.66ZM119.323 125.875C118.483 125.875 117.808 126.145 117.298 126.685C116.798 127.215 116.548 127.95 116.548 128.89C116.548 129.83 116.798 130.57 117.298 131.11C117.808 131.64 118.483 131.905 119.323 131.905C119.863 131.905 120.343 131.78 120.763 131.53C121.193 131.28 121.528 130.93 121.768 130.48C122.008 130.02 122.128 129.49 122.128 128.89C122.128 128.29 122.008 127.76 121.768 127.3C121.528 126.84 121.193 126.49 120.763 126.25C120.343 126 119.863 125.875 119.323 125.875ZM129.04 124.66C129.84 124.66 130.515 124.86 131.065 125.26C131.625 125.66 132.015 126.195 132.235 126.865V121.9H133.6V133H132.235V130.9C132.015 131.57 131.625 132.105 131.065 132.505C130.515 132.905 129.84 133.105 129.04 133.105C128.31 133.105 127.66 132.935 127.09 132.595C126.52 132.255 126.07 131.77 125.74 131.14C125.42 130.5 125.26 129.75 125.26 128.89C125.26 128.03 125.42 127.28 125.74 126.64C126.07 126 126.52 125.51 127.09 125.17C127.66 124.83 128.31 124.66 129.04 124.66ZM129.43 125.875C128.59 125.875 127.915 126.145 127.405 126.685C126.905 127.215 126.655 127.95 126.655 128.89C126.655 129.83 126.905 130.57 127.405 131.11C127.915 131.64 128.59 131.905 129.43 131.905C129.97 131.905 130.45 131.78 130.87 131.53C131.3 131.28 131.635 130.93 131.875 130.48C132.115 130.02 132.235 129.49 132.235 128.89C132.235 128.29 132.115 127.76 131.875 127.3C131.635 126.84 131.3 126.49 130.87 126.25C130.45 126 129.97 125.875 129.43 125.875ZM138.353 124.66C139.283 124.66 140.028 124.905 140.588 125.395C141.158 125.875 141.503 126.525 141.623 127.345H140.318C140.258 126.855 140.053 126.455 139.703 126.145C139.363 125.825 138.903 125.665 138.323 125.665C137.833 125.665 137.448 125.785 137.168 126.025C136.898 126.255 136.763 126.57 136.763 126.97C136.763 127.27 136.853 127.515 137.033 127.705C137.223 127.885 137.453 128.025 137.723 128.125C138.003 128.215 138.383 128.315 138.863 128.425C139.473 128.565 139.963 128.71 140.333 128.86C140.713 129 141.033 129.23 141.293 129.55C141.563 129.87 141.698 130.3 141.698 130.84C141.698 131.51 141.443 132.055 140.933 132.475C140.433 132.895 139.763 133.105 138.923 133.105C137.943 133.105 137.143 132.87 136.523 132.4C135.903 131.93 135.538 131.275 135.428 130.435H136.748C136.798 130.935 137.013 131.34 137.393 131.65C137.783 131.96 138.293 132.115 138.923 132.115C139.393 132.115 139.758 131.995 140.018 131.755C140.288 131.515 140.423 131.2 140.423 130.81C140.423 130.49 140.328 130.235 140.138 130.045C139.948 129.855 139.713 129.71 139.433 129.61C139.153 129.51 138.768 129.405 138.278 129.295C137.668 129.155 137.178 129.015 136.808 128.875C136.448 128.735 136.138 128.515 135.878 128.215C135.628 127.905 135.503 127.49 135.503 126.97C135.503 126.28 135.758 125.725 136.268 125.305C136.778 124.875 137.473 124.66 138.353 124.66ZM145.262 124.96V126.565H143.612V124.96H145.262ZM145.037 131.995C145.177 132.435 145.247 132.845 145.247 133.225C145.247 133.745 145.117 134.16 144.857 134.47C144.597 134.79 144.207 134.95 143.687 134.95V134.365C143.937 134.365 144.117 134.295 144.227 134.155C144.347 134.025 144.407 133.815 144.407 133.525V133.39H143.642V131.995H145.037ZM155.225 124.63C156.185 124.63 156.96 124.94 157.55 125.56C158.14 126.17 158.435 127.055 158.435 128.215V133H157.07V128.335C157.07 127.515 156.86 126.885 156.44 126.445C156.02 126.005 155.45 125.785 154.73 125.785C153.98 125.785 153.38 126.03 152.93 126.52C152.48 127 152.255 127.705 152.255 128.635V133H150.89V124.765H152.255V126.715C152.465 126.045 152.835 125.53 153.365 125.17C153.905 124.81 154.525 124.63 155.225 124.63ZM164.264 124.66C165.054 124.66 165.759 124.83 166.379 125.17C167.009 125.51 167.499 126 167.849 126.64C168.209 127.28 168.389 128.03 168.389 128.89C168.389 129.75 168.209 130.5 167.849 131.14C167.499 131.77 167.009 132.255 166.379 132.595C165.759 132.935 165.054 133.105 164.264 133.105C163.474 133.105 162.764 132.935 162.134 132.595C161.514 132.255 161.024 131.77 160.664 131.14C160.304 130.5 160.124 129.75 160.124 128.89C160.124 128.03 160.304 127.28 160.664 126.64C161.024 126 161.514 125.51 162.134 125.17C162.764 124.83 163.474 124.66 164.264 124.66ZM164.264 125.86C163.774 125.86 163.319 125.97 162.899 126.19C162.489 126.41 162.154 126.75 161.894 127.21C161.644 127.66 161.519 128.22 161.519 128.89C161.519 129.55 161.644 130.11 161.894 130.57C162.154 131.02 162.489 131.355 162.899 131.575C163.319 131.795 163.774 131.905 164.264 131.905C164.754 131.905 165.204 131.795 165.614 131.575C166.034 131.355 166.369 131.02 166.619 130.57C166.879 130.11 167.009 129.55 167.009 128.89C167.009 128.22 166.879 127.66 166.619 127.21C166.369 126.75 166.034 126.41 165.614 126.19C165.204 125.97 164.754 125.86 164.264 125.86ZM177.248 124.66C178.048 124.66 178.723 124.86 179.273 125.26C179.833 125.66 180.223 126.195 180.443 126.865V124.765H181.808V133H180.443V130.9C180.223 131.57 179.833 132.105 179.273 132.505C178.723 132.905 178.048 133.105 177.248 133.105C176.518 133.105 175.868 132.935 175.298 132.595C174.728 132.255 174.278 131.77 173.948 131.14C173.628 130.5 173.468 129.75 173.468 128.89C173.468 128.03 173.628 127.28 173.948 126.64C174.278 126 174.728 125.51 175.298 125.17C175.868 124.83 176.518 124.66 177.248 124.66ZM177.638 125.875C176.798 125.875 176.123 126.145 175.613 126.685C175.113 127.215 174.863 127.95 174.863 128.89C174.863 129.83 175.113 130.57 175.613 131.11C176.123 131.64 176.798 131.905 177.638 131.905C178.178 131.905 178.658 131.78 179.078 131.53C179.508 131.28 179.843 130.93 180.083 130.48C180.323 130.02 180.443 129.49 180.443 128.89C180.443 128.29 180.323 127.76 180.083 127.3C179.843 126.84 179.508 126.49 179.078 126.25C178.658 126 178.178 125.875 177.638 125.875ZM187.626 124.66C188.676 124.66 189.546 124.94 190.236 125.5C190.926 126.06 191.351 126.81 191.511 127.75H190.071C189.971 127.16 189.696 126.7 189.246 126.37C188.806 126.03 188.256 125.86 187.596 125.86C187.116 125.86 186.676 125.97 186.276 126.19C185.886 126.41 185.571 126.75 185.331 127.21C185.091 127.66 184.971 128.22 184.971 128.89C184.971 129.56 185.091 130.125 185.331 130.585C185.571 131.035 185.886 131.37 186.276 131.59C186.676 131.81 187.116 131.92 187.596 131.92C188.256 131.92 188.806 131.75 189.246 131.41C189.696 131.07 189.971 130.605 190.071 130.015H191.511C191.351 130.965 190.926 131.72 190.236 132.28C189.546 132.83 188.676 133.105 187.626 133.105C186.836 133.105 186.136 132.935 185.526 132.595C184.916 132.255 184.436 131.77 184.086 131.14C183.746 130.5 183.576 129.75 183.576 128.89C183.576 128.03 183.746 127.28 184.086 126.64C184.436 126 184.916 125.51 185.526 125.17C186.136 124.83 186.836 124.66 187.626 124.66ZM196.942 124.66C197.992 124.66 198.862 124.94 199.552 125.5C200.242 126.06 200.667 126.81 200.827 127.75H199.387C199.287 127.16 199.012 126.7 198.562 126.37C198.122 126.03 197.572 125.86 196.912 125.86C196.432 125.86 195.992 125.97 195.592 126.19C195.202 126.41 194.887 126.75 194.647 127.21C194.407 127.66 194.287 128.22 194.287 128.89C194.287 129.56 194.407 130.125 194.647 130.585C194.887 131.035 195.202 131.37 195.592 131.59C195.992 131.81 196.432 131.92 196.912 131.92C197.572 131.92 198.122 131.75 198.562 131.41C199.012 131.07 199.287 130.605 199.387 130.015H200.827C200.667 130.965 200.242 131.72 199.552 132.28C198.862 132.83 197.992 133.105 196.942 133.105C196.152 133.105 195.452 132.935 194.842 132.595C194.232 132.255 193.752 131.77 193.402 131.14C193.062 130.5 192.892 129.75 192.892 128.89C192.892 128.03 193.062 127.28 193.402 126.64C193.752 126 194.232 125.51 194.842 125.17C195.452 124.83 196.152 124.66 196.942 124.66ZM206.349 124.66C207.139 124.66 207.844 124.83 208.464 125.17C209.094 125.51 209.584 126 209.934 126.64C210.294 127.28 210.474 128.03 210.474 128.89C210.474 129.75 210.294 130.5 209.934 131.14C209.584 131.77 209.094 132.255 208.464 132.595C207.844 132.935 207.139 133.105 206.349 133.105C205.559 133.105 204.849 132.935 204.219 132.595C203.599 132.255 203.109 131.77 202.749 131.14C202.389 130.5 202.209 129.75 202.209 128.89C202.209 128.03 202.389 127.28 202.749 126.64C203.109 126 203.599 125.51 204.219 125.17C204.849 124.83 205.559 124.66 206.349 124.66ZM206.349 125.86C205.859 125.86 205.404 125.97 204.984 126.19C204.574 126.41 204.239 126.75 203.979 127.21C203.729 127.66 203.604 128.22 203.604 128.89C203.604 129.55 203.729 130.11 203.979 130.57C204.239 131.02 204.574 131.355 204.984 131.575C205.404 131.795 205.859 131.905 206.349 131.905C206.839 131.905 207.289 131.795 207.699 131.575C208.119 131.355 208.454 131.02 208.704 130.57C208.964 130.11 209.094 129.55 209.094 128.89C209.094 128.22 208.964 127.66 208.704 127.21C208.454 126.75 208.119 126.41 207.699 126.19C207.289 125.97 206.839 125.86 206.349 125.86ZM219.572 124.765V133H218.207V131.065C217.997 131.735 217.622 132.25 217.082 132.61C216.552 132.96 215.932 133.135 215.222 133.135C214.272 133.135 213.502 132.83 212.912 132.22C212.322 131.6 212.027 130.715 212.027 129.565V124.765H213.392V129.43C213.392 130.25 213.602 130.885 214.022 131.335C214.442 131.775 215.012 131.995 215.732 131.995C216.482 131.995 217.082 131.755 217.532 131.275C217.982 130.785 218.207 130.075 218.207 129.145V124.765H219.572ZM226.094 124.63C227.054 124.63 227.829 124.94 228.419 125.56C229.009 126.17 229.304 127.055 229.304 128.215V133H227.939V128.335C227.939 127.515 227.729 126.885 227.309 126.445C226.889 126.005 226.319 125.785 225.599 125.785C224.849 125.785 224.249 126.03 223.799 126.52C223.349 127 223.124 127.705 223.124 128.635V133H221.759V124.765H223.124V126.715C223.334 126.045 223.704 125.53 224.234 125.17C224.774 124.81 225.394 124.63 226.094 124.63ZM235.328 131.8V133H234.308C233.468 133 232.838 132.8 232.418 132.4C232.008 132 231.803 131.33 231.803 130.39V125.95H230.573V124.765H231.803V122.71H233.183V124.765H235.313V125.95H233.183V130.42C233.183 130.95 233.278 131.315 233.468 131.515C233.668 131.705 234.008 131.8 234.488 131.8H235.328ZM239.573 124.66C240.503 124.66 241.248 124.905 241.808 125.395C242.378 125.875 242.723 126.525 242.843 127.345H241.538C241.478 126.855 241.273 126.455 240.923 126.145C240.583 125.825 240.123 125.665 239.543 125.665C239.053 125.665 238.668 125.785 238.388 126.025C238.118 126.255 237.983 126.57 237.983 126.97C237.983 127.27 238.073 127.515 238.253 127.705C238.443 127.885 238.673 128.025 238.943 128.125C239.223 128.215 239.603 128.315 240.083 128.425C240.693 128.565 241.183 128.71 241.553 128.86C241.933 129 242.253 129.23 242.513 129.55C242.783 129.87 242.918 130.3 242.918 130.84C242.918 131.51 242.663 132.055 242.153 132.475C241.653 132.895 240.983 133.105 240.143 133.105C239.163 133.105 238.363 132.87 237.743 132.4C237.123 131.93 236.758 131.275 236.648 130.435H237.968C238.018 130.935 238.233 131.34 238.613 131.65C239.003 131.96 239.513 132.115 240.143 132.115C240.613 132.115 240.978 131.995 241.238 131.755C241.508 131.515 241.643 131.2 241.643 130.81C241.643 130.49 241.548 130.235 241.358 130.045C241.168 129.855 240.933 129.71 240.653 129.61C240.373 129.51 239.988 129.405 239.498 129.295C238.888 129.155 238.398 129.015 238.028 128.875C237.668 128.735 237.358 128.515 237.098 128.215C236.848 127.905 236.723 127.49 236.723 126.97C236.723 126.28 236.978 125.725 237.488 125.305C237.998 124.875 238.693 124.66 239.573 124.66ZM252.184 124.66C252.974 124.66 253.679 124.83 254.299 125.17C254.929 125.51 255.419 126 255.769 126.64C256.129 127.28 256.309 128.03 256.309 128.89C256.309 129.75 256.129 130.5 255.769 131.14C255.419 131.77 254.929 132.255 254.299 132.595C253.679 132.935 252.974 133.105 252.184 133.105C251.394 133.105 250.684 132.935 250.054 132.595C249.434 132.255 248.944 131.77 248.584 131.14C248.224 130.5 248.044 129.75 248.044 128.89C248.044 128.03 248.224 127.28 248.584 126.64C248.944 126 249.434 125.51 250.054 125.17C250.684 124.83 251.394 124.66 252.184 124.66ZM252.184 125.86C251.694 125.86 251.239 125.97 250.819 126.19C250.409 126.41 250.074 126.75 249.814 127.21C249.564 127.66 249.439 128.22 249.439 128.89C249.439 129.55 249.564 130.11 249.814 130.57C250.074 131.02 250.409 131.355 250.819 131.575C251.239 131.795 251.694 131.905 252.184 131.905C252.674 131.905 253.124 131.795 253.534 131.575C253.954 131.355 254.289 131.02 254.539 130.57C254.799 130.11 254.929 129.55 254.929 128.89C254.929 128.22 254.799 127.66 254.539 127.21C254.289 126.75 253.954 126.41 253.534 126.19C253.124 125.97 252.674 125.86 252.184 125.86ZM259.452 126.43C259.722 125.86 260.117 125.42 260.637 125.11C261.157 124.79 261.777 124.63 262.497 124.63V126.115H262.077C261.307 126.115 260.677 126.315 260.187 126.715C259.697 127.105 259.452 127.755 259.452 128.665V133H258.087V124.765H259.452V126.43ZM3.675 148.66C4.605 148.66 5.35 148.905 5.91 149.395C6.48 149.875 6.825 150.525 6.945 151.345H5.64C5.58 150.855 5.375 150.455 5.025 150.145C4.685 149.825 4.225 149.665 3.645 149.665C3.155 149.665 2.77 149.785 2.49 150.025C2.22 150.255 2.085 150.57 2.085 150.97C2.085 151.27 2.175 151.515 2.355 151.705C2.545 151.885 2.775 152.025 3.045 152.125C3.325 152.215 3.705 152.315 4.185 152.425C4.795 152.565 5.285 152.71 5.655 152.86C6.035 153 6.355 153.23 6.615 153.55C6.885 153.87 7.02 154.3 7.02 154.84C7.02 155.51 6.765 156.055 6.255 156.475C5.755 156.895 5.085 157.105 4.245 157.105C3.265 157.105 2.465 156.87 1.845 156.4C1.225 155.93 0.86 155.275 0.75 154.435H2.07C2.12 154.935 2.335 155.34 2.715 155.65C3.105 155.96 3.615 156.115 4.245 156.115C4.715 156.115 5.08 155.995 5.34 155.755C5.61 155.515 5.745 155.2 5.745 154.81C5.745 154.49 5.65 154.235 5.46 154.045C5.27 153.855 5.035 153.71 4.755 153.61C4.475 153.51 4.09 153.405 3.6 153.295C2.99 153.155 2.5 153.015 2.13 152.875C1.77 152.735 1.46 152.515 1.2 152.215C0.95 151.905 0.825 151.49 0.825 150.97C0.825 150.28 1.08 149.725 1.59 149.305C2.1 148.875 2.795 148.66 3.675 148.66ZM8.60402 146.35C8.60402 146.1 8.68902 145.9 8.85902 145.75C9.02902 145.59 9.25402 145.51 9.53402 145.51C9.81402 145.51 10.039 145.59 10.209 145.75C10.379 145.9 10.464 146.1 10.464 146.35C10.464 146.6 10.379 146.805 10.209 146.965C10.039 147.115 9.81402 147.19 9.53402 147.19C9.25402 147.19 9.02902 147.115 8.85902 146.965C8.68902 146.805 8.60402 146.6 8.60402 146.35ZM10.209 148.765V157H8.84402V148.765H10.209ZM15.7786 148.66C16.5786 148.66 17.2536 148.86 17.8036 149.26C18.3636 149.66 18.7536 150.195 18.9736 150.865V148.765H20.3386V157.135C20.3386 157.895 20.1786 158.57 19.8586 159.16C19.5386 159.75 19.0886 160.21 18.5086 160.54C17.9286 160.87 17.2536 161.035 16.4836 161.035C15.3736 161.035 14.4686 160.765 13.7686 160.225C13.0686 159.695 12.6236 158.975 12.4336 158.065H13.7836C13.9436 158.615 14.2436 159.045 14.6836 159.355C15.1336 159.675 15.7086 159.835 16.4086 159.835C17.1486 159.835 17.7586 159.595 18.2386 159.115C18.7286 158.645 18.9736 157.985 18.9736 157.135V154.9C18.7536 155.57 18.3636 156.105 17.8036 156.505C17.2536 156.905 16.5786 157.105 15.7786 157.105C15.0486 157.105 14.3986 156.935 13.8286 156.595C13.2586 156.255 12.8086 155.77 12.4786 155.14C12.1586 154.5 11.9986 153.75 11.9986 152.89C11.9986 152.03 12.1586 151.28 12.4786 150.64C12.8086 150 13.2586 149.51 13.8286 149.17C14.3986 148.83 15.0486 148.66 15.7786 148.66ZM16.1686 149.875C15.3286 149.875 14.6536 150.145 14.1436 150.685C13.6436 151.215 13.3936 151.95 13.3936 152.89C13.3936 153.83 13.6436 154.57 14.1436 155.11C14.6536 155.64 15.3286 155.905 16.1686 155.905C16.7086 155.905 17.1886 155.78 17.6086 155.53C18.0386 155.28 18.3736 154.93 18.6136 154.48C18.8536 154.02 18.9736 153.49 18.9736 152.89C18.9736 152.29 18.8536 151.76 18.6136 151.3C18.3736 150.84 18.0386 150.49 17.6086 150.25C17.1886 150 16.7086 149.875 16.1686 149.875ZM26.846 148.63C27.806 148.63 28.581 148.94 29.171 149.56C29.761 150.17 30.056 151.055 30.056 152.215V157H28.691V152.335C28.691 151.515 28.481 150.885 28.061 150.445C27.641 150.005 27.071 149.785 26.351 149.785C25.601 149.785 25.001 150.03 24.551 150.52C24.101 151 23.876 151.705 23.876 152.635V157H22.511V148.765H23.876V150.715C24.086 150.045 24.456 149.53 24.986 149.17C25.526 148.81 26.146 148.63 26.846 148.63ZM36.8297 150.925V152.08H30.8297V150.925H36.8297ZM46.8379 148.765V157H45.4729V155.065C45.2629 155.735 44.8879 156.25 44.3479 156.61C43.8179 156.96 43.1979 157.135 42.4879 157.135C41.5379 157.135 40.7679 156.83 40.1779 156.22C39.5879 155.6 39.2929 154.715 39.2929 153.565V148.765H40.6579V153.43C40.6579 154.25 40.8679 154.885 41.2879 155.335C41.7079 155.775 42.2779 155.995 42.9979 155.995C43.7479 155.995 44.3479 155.755 44.7979 155.275C45.2479 154.785 45.4729 154.075 45.4729 153.145V148.765H46.8379ZM53.5697 148.66C54.2997 148.66 54.9497 148.83 55.5197 149.17C56.0897 149.51 56.5347 150 56.8547 150.64C57.1847 151.28 57.3497 152.03 57.3497 152.89C57.3497 153.75 57.1847 154.5 56.8547 155.14C56.5347 155.77 56.0897 156.255 55.5197 156.595C54.9497 156.935 54.2997 157.105 53.5697 157.105C52.7697 157.105 52.0897 156.905 51.5297 156.505C50.9797 156.095 50.5997 155.56 50.3897 154.9V160.9H49.0247V148.765H50.3897V150.865C50.5997 150.205 50.9797 149.675 51.5297 149.275C52.0897 148.865 52.7697 148.66 53.5697 148.66ZM53.1797 149.875C52.6497 149.875 52.1697 150 51.7397 150.25C51.3097 150.49 50.9747 150.84 50.7347 151.3C50.4947 151.76 50.3747 152.29 50.3747 152.89C50.3747 153.49 50.4947 154.02 50.7347 154.48C50.9747 154.93 51.3097 155.28 51.7397 155.53C52.1697 155.78 52.6497 155.905 53.1797 155.905C54.0297 155.905 54.7047 155.64 55.2047 155.11C55.7147 154.57 55.9697 153.83 55.9697 152.89C55.9697 151.95 55.7147 151.215 55.2047 150.685C54.7047 150.145 54.0297 149.875 53.1797 149.875ZM61.7121 148.66C62.6421 148.66 63.3871 148.905 63.9471 149.395C64.5171 149.875 64.8621 150.525 64.9821 151.345H63.6771C63.6171 150.855 63.4121 150.455 63.0621 150.145C62.7221 149.825 62.2621 149.665 61.6821 149.665C61.1921 149.665 60.8071 149.785 60.5271 150.025C60.2571 150.255 60.1221 150.57 60.1221 150.97C60.1221 151.27 60.2121 151.515 60.3921 151.705C60.5821 151.885 60.8121 152.025 61.0821 152.125C61.3621 152.215 61.7421 152.315 62.2221 152.425C62.8321 152.565 63.3221 152.71 63.6921 152.86C64.0721 153 64.3921 153.23 64.6521 153.55C64.9221 153.87 65.0571 154.3 65.0571 154.84C65.0571 155.51 64.8021 156.055 64.2921 156.475C63.7921 156.895 63.1221 157.105 62.2821 157.105C61.3021 157.105 60.5021 156.87 59.8821 156.4C59.2621 155.93 58.8971 155.275 58.7871 154.435H60.1071C60.1571 154.935 60.3721 155.34 60.7521 155.65C61.1421 155.96 61.6521 156.115 62.2821 156.115C62.7521 156.115 63.1171 155.995 63.3771 155.755C63.6471 155.515 63.7821 155.2 63.7821 154.81C63.7821 154.49 63.6871 154.235 63.4971 154.045C63.3071 153.855 63.0721 153.71 62.7921 153.61C62.5121 153.51 62.1271 153.405 61.6371 153.295C61.0271 153.155 60.5371 153.015 60.1671 152.875C59.8071 152.735 59.4971 152.515 59.2371 152.215C58.9871 151.905 58.8621 151.49 58.8621 150.97C58.8621 150.28 59.1171 149.725 59.6271 149.305C60.1371 148.875 60.8321 148.66 61.7121 148.66ZM71.9522 150.43C72.2222 149.86 72.6172 149.42 73.1372 149.11C73.6572 148.79 74.2772 148.63 74.9972 148.63V150.115H74.5772C73.8072 150.115 73.1772 150.315 72.6872 150.715C72.1972 151.105 71.9522 151.755 71.9522 152.665V157H70.5872V148.765H71.9522V150.43ZM83.919 152.425C83.919 152.715 83.899 152.965 83.859 153.175H77.274C77.304 154.115 77.569 154.82 78.069 155.29C78.579 155.76 79.199 155.995 79.929 155.995C80.589 155.995 81.139 155.83 81.579 155.5C82.029 155.16 82.304 154.71 82.404 154.15H83.859C83.759 154.72 83.534 155.23 83.184 155.68C82.844 156.13 82.399 156.48 81.849 156.73C81.299 156.98 80.679 157.105 79.989 157.105C79.199 157.105 78.499 156.935 77.889 156.595C77.279 156.255 76.799 155.77 76.449 155.14C76.109 154.5 75.939 153.75 75.939 152.89C75.939 152.03 76.109 151.28 76.449 150.64C76.799 150 77.279 149.51 77.889 149.17C78.499 148.83 79.199 148.66 79.989 148.66C80.789 148.66 81.484 148.83 82.074 149.17C82.674 149.51 83.129 149.965 83.439 150.535C83.759 151.105 83.919 151.735 83.919 152.425ZM82.539 152.515C82.569 151.905 82.469 151.395 82.239 150.985C82.009 150.575 81.694 150.27 81.294 150.07C80.894 149.87 80.459 149.77 79.989 149.77C79.239 149.77 78.609 150.005 78.099 150.475C77.589 150.935 77.314 151.615 77.274 152.515H82.539ZM89.1694 148.69C89.9294 148.69 90.5744 148.875 91.1044 149.245C91.6444 149.605 92.0344 150.095 92.2744 150.715V148.765H93.6394V160.9H92.2744V154.99C92.0244 155.64 91.6294 156.155 91.0894 156.535C90.5594 156.915 89.9194 157.105 89.1694 157.105C88.4394 157.105 87.7794 156.935 87.1894 156.595C86.5994 156.245 86.1344 155.755 85.7944 155.125C85.4644 154.485 85.2994 153.745 85.2994 152.905C85.2994 152.065 85.4644 151.33 85.7944 150.7C86.1344 150.06 86.5994 149.565 87.1894 149.215C87.7794 148.865 88.4394 148.69 89.1694 148.69ZM89.4694 149.875C88.6494 149.875 87.9794 150.145 87.4594 150.685C86.9494 151.215 86.6944 151.955 86.6944 152.905C86.6944 153.855 86.9494 154.595 87.4594 155.125C87.9694 155.645 88.6394 155.905 89.4694 155.905C89.9894 155.905 90.4594 155.785 90.8794 155.545C91.3094 155.295 91.6494 154.945 91.8994 154.495C92.1494 154.035 92.2744 153.5 92.2744 152.89C92.2744 152.28 92.1494 151.75 91.8994 151.3C91.6494 150.84 91.3094 150.49 90.8794 150.25C90.4594 150 89.9894 149.875 89.4694 149.875ZM103.132 148.765V157H101.767V155.065C101.557 155.735 101.182 156.25 100.642 156.61C100.112 156.96 99.4918 157.135 98.7818 157.135C97.8318 157.135 97.0618 156.83 96.4718 156.22C95.8818 155.6 95.5868 154.715 95.5868 153.565V148.765H96.9518V153.43C96.9518 154.25 97.1618 154.885 97.5818 155.335C98.0018 155.775 98.5718 155.995 99.2918 155.995C100.042 155.995 100.642 155.755 101.092 155.275C101.542 154.785 101.767 154.075 101.767 153.145V148.765H103.132ZM105.079 146.35C105.079 146.1 105.164 145.9 105.334 145.75C105.504 145.59 105.729 145.51 106.009 145.51C106.289 145.51 106.514 145.59 106.684 145.75C106.854 145.9 106.939 146.1 106.939 146.35C106.939 146.6 106.854 146.805 106.684 146.965C106.514 147.115 106.289 147.19 106.009 147.19C105.729 147.19 105.504 147.115 105.334 146.965C105.164 146.805 105.079 146.6 105.079 146.35ZM106.684 148.765V157H105.319V148.765H106.684ZM110.243 150.43C110.513 149.86 110.908 149.42 111.428 149.11C111.948 148.79 112.568 148.63 113.288 148.63V150.115H112.868C112.098 150.115 111.468 150.315 110.978 150.715C110.488 151.105 110.243 151.755 110.243 152.665V157H108.878V148.765H110.243V150.43ZM122.21 152.425C122.21 152.715 122.19 152.965 122.15 153.175H115.565C115.595 154.115 115.86 154.82 116.36 155.29C116.87 155.76 117.49 155.995 118.22 155.995C118.88 155.995 119.43 155.83 119.87 155.5C120.32 155.16 120.595 154.71 120.695 154.15H122.15C122.05 154.72 121.825 155.23 121.475 155.68C121.135 156.13 120.69 156.48 120.14 156.73C119.59 156.98 118.97 157.105 118.28 157.105C117.49 157.105 116.79 156.935 116.18 156.595C115.57 156.255 115.09 155.77 114.74 155.14C114.4 154.5 114.23 153.75 114.23 152.89C114.23 152.03 114.4 151.28 114.74 150.64C115.09 150 115.57 149.51 116.18 149.17C116.79 148.83 117.49 148.66 118.28 148.66C119.08 148.66 119.775 148.83 120.365 149.17C120.965 149.51 121.42 149.965 121.73 150.535C122.05 151.105 122.21 151.735 122.21 152.425ZM120.83 152.515C120.86 151.905 120.76 151.395 120.53 150.985C120.3 150.575 119.985 150.27 119.585 150.07C119.185 149.87 118.75 149.77 118.28 149.77C117.53 149.77 116.9 150.005 116.39 150.475C115.88 150.935 115.605 151.615 115.565 152.515H120.83ZM127.37 148.66C128.17 148.66 128.845 148.86 129.395 149.26C129.955 149.66 130.345 150.195 130.565 150.865V145.9H131.93V157H130.565V154.9C130.345 155.57 129.955 156.105 129.395 156.505C128.845 156.905 128.17 157.105 127.37 157.105C126.64 157.105 125.99 156.935 125.42 156.595C124.85 156.255 124.4 155.77 124.07 155.14C123.75 154.5 123.59 153.75 123.59 152.89C123.59 152.03 123.75 151.28 124.07 150.64C124.4 150 124.85 149.51 125.42 149.17C125.99 148.83 126.64 148.66 127.37 148.66ZM127.76 149.875C126.92 149.875 126.245 150.145 125.735 150.685C125.235 151.215 124.985 151.95 124.985 152.89C124.985 153.83 125.235 154.57 125.735 155.11C126.245 155.64 126.92 155.905 127.76 155.905C128.3 155.905 128.78 155.78 129.2 155.53C129.63 155.28 129.965 154.93 130.205 154.48C130.445 154.02 130.565 153.49 130.565 152.89C130.565 152.29 130.445 151.76 130.205 151.3C129.965 150.84 129.63 150.49 129.2 150.25C128.78 150 128.3 149.875 127.76 149.875ZM135.108 155.395V157H133.458V155.395H135.108Z" fill="#344563"/>
<g clip-path="url(#clip3_39_288)">
<rect y="180" width="53" height="24" rx="8" fill="#EBEBFF"/>
<path d="M16.524 189.28C17.292 189.28 17.908 189.528 18.372 190.024C18.836 190.52 19.068 191.228 19.068 192.148V196H17.7V192.292C17.7 191.7 17.548 191.244 17.244 190.924C16.94 190.596 16.524 190.432 15.996 190.432C15.452 190.432 15.016 190.608 14.688 190.96C14.36 191.304 14.196 191.812 14.196 192.484V196H12.828V187.12H14.196V190.84C14.372 190.344 14.668 189.96 15.084 189.688C15.5 189.416 15.98 189.28 16.524 189.28ZM24.3518 194.812V196H23.5118C22.8078 196 22.2718 195.832 21.9038 195.496C21.5438 195.152 21.3638 194.584 21.3638 193.792V190.552H20.4158V189.388H21.3638V187.744H22.7438V189.388H24.3398V190.552H22.7438V193.816C22.7438 194.192 22.8118 194.452 22.9478 194.596C23.0918 194.74 23.3398 194.812 23.6918 194.812H24.3518ZM34.2613 189.28C35.0453 189.28 35.6693 189.528 36.1333 190.024C36.6053 190.52 36.8413 191.228 36.8413 192.148V196H35.4733V192.292C35.4733 191.716 35.3293 191.272 35.0413 190.96C34.7533 190.64 34.3573 190.48 33.8533 190.48C33.3173 190.48 32.8893 190.652 32.5693 190.996C32.2573 191.332 32.1013 191.828 32.1013 192.484V196H30.7333V192.292C30.7333 191.716 30.5893 191.272 30.3013 190.96C30.0133 190.64 29.6173 190.48 29.1133 190.48C28.5773 190.48 28.1493 190.652 27.8293 190.996C27.5173 191.332 27.3613 191.828 27.3613 192.484V196H25.9933V189.388H27.3613V190.768C27.5293 190.288 27.8093 189.92 28.2013 189.664C28.5933 189.408 29.0533 189.28 29.5813 189.28C30.1333 189.28 30.6093 189.416 31.0093 189.688C31.4173 189.96 31.7133 190.352 31.8973 190.864C32.0893 190.368 32.3973 189.98 32.8213 189.7C33.2453 189.42 33.7253 189.28 34.2613 189.28ZM40.1666 187.12V196H38.7986V187.12H40.1666Z" fill="#6070FF"/>
<rect x="61" y="180" width="45" height="24" rx="8" fill="#EBEBFF"/>
<path d="M76.768 189.304C77.624 189.304 78.332 189.532 78.892 189.988C79.452 190.436 79.8 191.048 79.936 191.824H78.484C78.404 191.408 78.208 191.084 77.896 190.852C77.592 190.612 77.208 190.492 76.744 190.492C76.216 190.492 75.776 190.68 75.424 191.056C75.072 191.424 74.896 191.968 74.896 192.688C74.896 193.408 75.072 193.956 75.424 194.332C75.776 194.708 76.216 194.896 76.744 194.896C77.208 194.896 77.592 194.776 77.896 194.536C78.208 194.296 78.404 193.968 78.484 193.552H79.936C79.8 194.328 79.452 194.944 78.892 195.4C78.332 195.856 77.624 196.084 76.768 196.084C76.128 196.084 75.56 195.948 75.064 195.676C74.576 195.404 74.192 195.012 73.912 194.5C73.632 193.988 73.492 193.384 73.492 192.688C73.492 192 73.632 191.4 73.912 190.888C74.192 190.376 74.576 189.984 75.064 189.712C75.56 189.44 76.128 189.304 76.768 189.304ZM83.7897 189.304C84.5657 189.304 85.1857 189.504 85.6497 189.904C86.1217 190.296 86.4097 190.824 86.5137 191.488H85.2177C85.1617 191.128 85.0057 190.84 84.7497 190.624C84.5017 190.4 84.1697 190.288 83.7537 190.288C83.4097 190.288 83.1417 190.372 82.9497 190.54C82.7657 190.7 82.6737 190.92 82.6737 191.2C82.6737 191.408 82.7417 191.576 82.8777 191.704C83.0137 191.832 83.1817 191.932 83.3817 192.004C83.5897 192.076 83.8817 192.156 84.2577 192.244C84.7537 192.356 85.1537 192.472 85.4577 192.592C85.7697 192.712 86.0337 192.904 86.2497 193.168C86.4737 193.424 86.5857 193.776 86.5857 194.224C86.5857 194.776 86.3737 195.224 85.9497 195.568C85.5337 195.912 84.9697 196.084 84.2577 196.084C83.4337 196.084 82.7657 195.892 82.2537 195.508C81.7497 195.124 81.4457 194.588 81.3417 193.9H82.6737C82.7137 194.26 82.8737 194.552 83.1537 194.776C83.4337 195 83.8017 195.112 84.2577 195.112C84.5857 195.112 84.8417 195.028 85.0257 194.86C85.2177 194.684 85.3137 194.464 85.3137 194.2C85.3137 193.968 85.2417 193.784 85.0977 193.648C84.9537 193.512 84.7737 193.408 84.5577 193.336C84.3417 193.256 84.0457 193.176 83.6697 193.096C83.1897 192.984 82.7977 192.872 82.4937 192.76C82.1977 192.648 81.9417 192.468 81.7257 192.22C81.5177 191.964 81.4137 191.62 81.4137 191.188C81.4137 190.628 81.6217 190.176 82.0377 189.832C82.4617 189.48 83.0457 189.304 83.7897 189.304ZM90.4895 189.304C91.2655 189.304 91.8855 189.504 92.3495 189.904C92.8215 190.296 93.1095 190.824 93.2135 191.488H91.9175C91.8615 191.128 91.7055 190.84 91.4495 190.624C91.2015 190.4 90.8695 190.288 90.4535 190.288C90.1095 190.288 89.8415 190.372 89.6495 190.54C89.4655 190.7 89.3735 190.92 89.3735 191.2C89.3735 191.408 89.4415 191.576 89.5775 191.704C89.7135 191.832 89.8815 191.932 90.0815 192.004C90.2895 192.076 90.5815 192.156 90.9575 192.244C91.4535 192.356 91.8535 192.472 92.1575 192.592C92.4695 192.712 92.7335 192.904 92.9495 193.168C93.1735 193.424 93.2855 193.776 93.2855 194.224C93.2855 194.776 93.0735 195.224 92.6495 195.568C92.2335 195.912 91.6695 196.084 90.9575 196.084C90.1335 196.084 89.4655 195.892 88.9535 195.508C88.4495 195.124 88.1455 194.588 88.0415 193.9H89.3735C89.4135 194.26 89.5735 194.552 89.8535 194.776C90.1335 195 90.5015 195.112 90.9575 195.112C91.2855 195.112 91.5415 195.028 91.7255 194.86C91.9175 194.684 92.0135 194.464 92.0135 194.2C92.0135 193.968 91.9415 193.784 91.7975 193.648C91.6535 193.512 91.4735 193.408 91.2575 193.336C91.0415 193.256 90.7455 193.176 90.3695 193.096C89.8895 192.984 89.4975 192.872 89.1935 192.76C88.8975 192.648 88.6415 192.468 88.4255 192.22C88.2175 191.964 88.1135 191.62 88.1135 191.188C88.1135 190.628 88.3215 190.176 88.7375 189.832C89.1615 189.48 89.7455 189.304 90.4895 189.304Z" fill="#6070FF"/>
<rect x="114" y="180" width="89" height="24" rx="8" fill="#EBEBFF"/>
<path d="M127.572 188.248C127.308 188.248 127.092 188.176 126.924 188.032C126.764 187.888 126.684 187.7 126.684 187.468C126.684 187.236 126.764 187.044 126.924 186.892C127.092 186.74 127.308 186.664 127.572 186.664C127.836 186.664 128.048 186.74 128.208 186.892C128.368 187.044 128.448 187.236 128.448 187.468C128.448 187.7 128.368 187.888 128.208 188.032C128.048 188.176 127.836 188.248 127.572 188.248ZM125.652 197.944H126.12C126.384 197.944 126.576 197.884 126.696 197.764C126.824 197.652 126.888 197.456 126.888 197.176V189.388H128.268V197.188C128.268 198.492 127.612 199.144 126.3 199.144H125.652V197.944ZM132.91 189.304C133.51 189.304 134.022 189.452 134.446 189.748C134.87 190.044 135.17 190.436 135.346 190.924V189.388H136.714V196H135.346V194.464C135.17 194.952 134.87 195.344 134.446 195.64C134.022 195.936 133.51 196.084 132.91 196.084C132.334 196.084 131.818 195.948 131.362 195.676C130.914 195.404 130.562 195.012 130.306 194.5C130.05 193.988 129.922 193.384 129.922 192.688C129.922 192 130.05 191.4 130.306 190.888C130.562 190.376 130.914 189.984 131.362 189.712C131.818 189.44 132.334 189.304 132.91 189.304ZM133.33 190.504C132.722 190.504 132.234 190.7 131.866 191.092C131.506 191.476 131.326 192.008 131.326 192.688C131.326 193.368 131.506 193.904 131.866 194.296C132.234 194.68 132.722 194.872 133.33 194.872C133.714 194.872 134.058 194.784 134.362 194.608C134.666 194.424 134.906 194.168 135.082 193.84C135.258 193.512 135.346 193.128 135.346 192.688C135.346 192.256 135.258 191.876 135.082 191.548C134.906 191.212 134.666 190.956 134.362 190.78C134.058 190.596 133.714 190.504 133.33 190.504ZM141.428 194.584L143.3 189.388H144.764L142.244 196H140.588L138.068 189.388H139.532L141.428 194.584ZM148.783 189.304C149.383 189.304 149.895 189.452 150.319 189.748C150.743 190.044 151.043 190.436 151.219 190.924V189.388H152.587V196H151.219V194.464C151.043 194.952 150.743 195.344 150.319 195.64C149.895 195.936 149.383 196.084 148.783 196.084C148.207 196.084 147.691 195.948 147.235 195.676C146.787 195.404 146.435 195.012 146.179 194.5C145.923 193.988 145.795 193.384 145.795 192.688C145.795 192 145.923 191.4 146.179 190.888C146.435 190.376 146.787 189.984 147.235 189.712C147.691 189.44 148.207 189.304 148.783 189.304ZM149.203 190.504C148.595 190.504 148.107 190.7 147.739 191.092C147.379 191.476 147.199 192.008 147.199 192.688C147.199 193.368 147.379 193.904 147.739 194.296C148.107 194.68 148.595 194.872 149.203 194.872C149.587 194.872 149.931 194.784 150.235 194.608C150.539 194.424 150.779 194.168 150.955 193.84C151.131 193.512 151.219 193.128 151.219 192.688C151.219 192.256 151.131 191.876 150.955 191.548C150.779 191.212 150.539 190.956 150.235 190.78C149.931 190.596 149.587 190.504 149.203 190.504ZM160.156 193.744C160.156 194.16 160.056 194.548 159.856 194.908C159.656 195.26 159.352 195.544 158.944 195.76C158.536 195.976 158.036 196.084 157.444 196.084C156.868 196.084 156.352 195.984 155.896 195.784C155.44 195.576 155.076 195.288 154.804 194.92C154.532 194.552 154.376 194.128 154.336 193.648H155.8C155.84 194.016 155.996 194.332 156.268 194.596C156.548 194.86 156.92 194.992 157.384 194.992C157.8 194.992 158.12 194.88 158.344 194.656C158.576 194.432 158.692 194.144 158.692 193.792C158.692 193.488 158.608 193.24 158.44 193.048C158.272 192.848 158.064 192.692 157.816 192.58C157.568 192.468 157.228 192.34 156.796 192.196C156.268 192.028 155.836 191.86 155.5 191.692C155.172 191.524 154.892 191.28 154.66 190.96C154.428 190.64 154.312 190.22 154.312 189.7C154.312 189.244 154.424 188.844 154.648 188.5C154.872 188.156 155.192 187.892 155.608 187.708C156.024 187.516 156.504 187.42 157.048 187.42C157.912 187.42 158.596 187.628 159.1 188.044C159.612 188.46 159.904 189.004 159.976 189.676H158.5C158.444 189.356 158.292 189.084 158.044 188.86C157.804 188.628 157.472 188.512 157.048 188.512C156.664 188.512 156.356 188.612 156.124 188.812C155.892 189.004 155.776 189.284 155.776 189.652C155.776 189.94 155.856 190.18 156.016 190.372C156.176 190.556 156.376 190.704 156.616 190.816C156.864 190.92 157.2 191.044 157.624 191.188C158.16 191.356 158.596 191.528 158.932 191.704C159.276 191.872 159.564 192.12 159.796 192.448C160.036 192.776 160.156 193.208 160.156 193.744ZM164.826 189.304C165.682 189.304 166.39 189.532 166.95 189.988C167.51 190.436 167.858 191.048 167.994 191.824H166.542C166.462 191.408 166.266 191.084 165.954 190.852C165.65 190.612 165.266 190.492 164.802 190.492C164.274 190.492 163.834 190.68 163.482 191.056C163.13 191.424 162.954 191.968 162.954 192.688C162.954 193.408 163.13 193.956 163.482 194.332C163.834 194.708 164.274 194.896 164.802 194.896C165.266 194.896 165.65 194.776 165.954 194.536C166.266 194.296 166.462 193.968 166.542 193.552H167.994C167.858 194.328 167.51 194.944 166.95 195.4C166.39 195.856 165.682 196.084 164.826 196.084C164.186 196.084 163.618 195.948 163.122 195.676C162.634 195.404 162.25 195.012 161.97 194.5C161.69 193.988 161.55 193.384 161.55 192.688C161.55 192 161.69 191.4 161.97 190.888C162.25 190.376 162.634 189.984 163.122 189.712C163.618 189.44 164.186 189.304 164.826 189.304ZM171.044 190.684C171.267 190.252 171.587 189.912 172.003 189.664C172.42 189.408 172.9 189.28 173.444 189.28V190.768H173.035C172.436 190.768 171.952 190.916 171.584 191.212C171.224 191.5 171.044 191.98 171.044 192.652V196H169.675V189.388H171.044V190.684ZM174.636 187.468C174.636 187.236 174.716 187.044 174.876 186.892C175.036 186.74 175.248 186.664 175.512 186.664C175.776 186.664 175.988 186.74 176.148 186.892C176.316 187.044 176.4 187.236 176.4 187.468C176.4 187.7 176.316 187.888 176.148 188.032C175.988 188.176 175.776 188.248 175.512 188.248C175.248 188.248 175.036 188.176 174.876 188.032C174.716 187.888 174.636 187.7 174.636 187.468ZM176.196 189.388V196H174.828V189.388H176.196ZM182.004 189.304C182.58 189.304 183.092 189.44 183.54 189.712C183.996 189.984 184.352 190.376 184.608 190.888C184.864 191.4 184.992 192 184.992 192.688C184.992 193.384 184.864 193.988 184.608 194.5C184.352 195.012 183.996 195.404 183.54 195.676C183.092 195.948 182.58 196.084 182.004 196.084C181.404 196.084 180.892 195.936 180.468 195.64C180.044 195.344 179.748 194.952 179.58 194.464V199.144H178.212V189.388H179.58V190.924C179.748 190.436 180.044 190.044 180.468 189.748C180.892 189.452 181.404 189.304 182.004 189.304ZM181.584 190.504C181.2 190.504 180.856 190.596 180.552 190.78C180.248 190.956 180.008 191.212 179.832 191.548C179.656 191.876 179.568 192.256 179.568 192.688C179.568 193.128 179.656 193.512 179.832 193.84C180.008 194.168 180.248 194.424 180.552 194.608C180.856 194.784 181.2 194.872 181.584 194.872C182.192 194.872 182.68 194.68 183.048 194.296C183.416 193.904 183.6 193.368 183.6 192.688C183.6 192.016 183.416 191.484 183.048 191.092C182.68 190.7 182.192 190.504 181.584 190.504ZM189.994 194.812V196H189.154C188.45 196 187.914 195.832 187.546 195.496C187.186 195.152 187.006 194.584 187.006 193.792V190.552H186.058V189.388H187.006V187.744H188.386V189.388H189.982V190.552H188.386V193.816C188.386 194.192 188.454 194.452 188.59 194.596C188.734 194.74 188.982 194.812 189.334 194.812H189.994Z" fill="#6070FF"/>
</g>
<path d="M21.2215 254.804C21.2215 255.393 21.0798 255.943 20.7965 256.453C20.5131 256.952 20.0825 257.354 19.5045 257.66C18.9265 257.966 18.2181 258.119 17.3795 258.119C16.5635 258.119 15.8325 257.977 15.1865 257.694C14.5405 257.399 14.0248 256.991 13.6395 256.47C13.2541 255.949 13.0331 255.348 12.9764 254.668H15.0505C15.1071 255.189 15.3281 255.637 15.7135 256.011C16.1101 256.385 16.6371 256.572 17.2945 256.572C17.8838 256.572 18.3371 256.413 18.6545 256.096C18.9831 255.779 19.1475 255.371 19.1475 254.872C19.1475 254.441 19.0285 254.09 18.7905 253.818C18.5525 253.535 18.2578 253.314 17.9065 253.155C17.5551 252.996 17.0735 252.815 16.4615 252.611C15.7135 252.373 15.1015 252.135 14.6255 251.897C14.1608 251.659 13.7641 251.313 13.4355 250.86C13.1068 250.407 12.9425 249.812 12.9425 249.075C12.9425 248.429 13.1011 247.862 13.4184 247.375C13.7358 246.888 14.1891 246.514 14.7785 246.253C15.3678 245.981 16.0478 245.845 16.8185 245.845C18.0425 245.845 19.0115 246.14 19.7255 246.729C20.4508 247.318 20.8645 248.089 20.9665 249.041H18.8755C18.7961 248.588 18.5808 248.202 18.2295 247.885C17.8895 247.556 17.4191 247.392 16.8185 247.392C16.2745 247.392 15.8381 247.534 15.5095 247.817C15.1808 248.089 15.0165 248.486 15.0165 249.007C15.0165 249.415 15.1298 249.755 15.3565 250.027C15.5831 250.288 15.8665 250.497 16.2065 250.656C16.5578 250.803 17.0338 250.979 17.6345 251.183C18.3938 251.421 19.0115 251.665 19.4875 251.914C19.9748 252.152 20.3828 252.503 20.7115 252.968C21.0515 253.433 21.2215 254.045 21.2215 254.804ZM32.3756 252.866C32.3756 253.183 32.3529 253.461 32.3076 253.699H25.0996C25.1336 254.662 25.3999 255.376 25.8986 255.841C26.3972 256.306 27.0149 256.538 27.7516 256.538C28.3976 256.538 28.9416 256.374 29.3836 256.045C29.8369 255.716 30.1146 255.28 30.2166 254.736H32.2906C32.1659 255.393 31.9052 255.977 31.5086 256.487C31.1119 256.997 30.5962 257.399 29.9616 257.694C29.3269 257.977 28.6186 258.119 27.8366 258.119C26.9299 258.119 26.1252 257.926 25.4226 257.541C24.7312 257.156 24.1872 256.6 23.7906 255.875C23.3939 255.15 23.1956 254.294 23.1956 253.308C23.1956 252.333 23.3939 251.483 23.7906 250.758C24.1872 250.033 24.7312 249.477 25.4226 249.092C26.1252 248.707 26.9299 248.514 27.8366 248.514C28.7546 248.514 29.5536 248.707 30.2336 249.092C30.9249 249.466 31.4519 249.987 31.8146 250.656C32.1886 251.313 32.3756 252.05 32.3756 252.866ZM30.4206 252.815C30.4432 252.203 30.3356 251.693 30.0976 251.285C29.8709 250.866 29.5536 250.56 29.1456 250.367C28.7489 250.163 28.3126 250.061 27.8366 250.061C27.0772 250.061 26.4426 250.293 25.9326 250.758C25.4226 251.223 25.1449 251.908 25.0996 252.815H30.4206ZM43.4608 252.866C43.4608 253.183 43.4381 253.461 43.3928 253.699H36.1848C36.2188 254.662 36.4851 255.376 36.9838 255.841C37.4824 256.306 38.1001 256.538 38.8368 256.538C39.4828 256.538 40.0268 256.374 40.4688 256.045C40.9221 255.716 41.1998 255.28 41.3018 254.736H43.3758C43.2511 255.393 42.9904 255.977 42.5938 256.487C42.1971 256.997 41.6814 257.399 41.0468 257.694C40.4121 257.977 39.7038 258.119 38.9218 258.119C38.0151 258.119 37.2104 257.926 36.5078 257.541C35.8164 257.156 35.2724 256.6 34.8758 255.875C34.4791 255.15 34.2808 254.294 34.2808 253.308C34.2808 252.333 34.4791 251.483 34.8758 250.758C35.2724 250.033 35.8164 249.477 36.5078 249.092C37.2104 248.707 38.0151 248.514 38.9218 248.514C39.8398 248.514 40.6388 248.707 41.3188 249.092C42.0101 249.466 42.5371 249.987 42.8998 250.656C43.2738 251.313 43.4608 252.05 43.4608 252.866ZM41.5058 252.815C41.5284 252.203 41.4208 251.693 41.1828 251.285C40.9561 250.866 40.6388 250.56 40.2308 250.367C39.8341 250.163 39.3978 250.061 38.9218 250.061C38.1624 250.061 37.5278 250.293 37.0178 250.758C36.5078 251.223 36.2301 251.908 36.1848 252.815H41.5058ZM52.2743 253.342V258H50.3363V245.998H54.4163C55.799 245.998 56.836 246.327 57.5273 246.984C58.23 247.641 58.5813 248.542 58.5813 249.687C58.5813 250.82 58.2243 251.716 57.5103 252.373C56.7963 253.019 55.765 253.342 54.4163 253.342H52.2743ZM54.2123 251.761C55.8103 251.761 56.6093 251.07 56.6093 249.687C56.6093 249.007 56.4167 248.491 56.0313 248.14C55.6573 247.777 55.051 247.596 54.2123 247.596H52.2743V251.761H54.2123ZM62.7287 250.469C63.046 249.857 63.4993 249.375 64.0887 249.024C64.678 248.661 65.358 248.48 66.1287 248.48V250.588H65.5507C64.7007 250.588 64.015 250.798 63.4937 251.217C62.9837 251.625 62.7287 252.305 62.7287 253.257V258H60.7907V248.633H62.7287V250.469ZM72.3747 248.514C73.2814 248.514 74.0974 248.707 74.8227 249.092C75.5481 249.477 76.1147 250.033 76.5227 250.758C76.9307 251.483 77.1347 252.333 77.1347 253.308C77.1347 254.294 76.9307 255.15 76.5227 255.875C76.1147 256.6 75.5481 257.156 74.8227 257.541C74.0974 257.926 73.2814 258.119 72.3747 258.119C71.4681 258.119 70.6521 257.926 69.9267 257.541C69.2127 257.156 68.6461 256.6 68.2267 255.875C67.8187 255.138 67.6147 254.283 67.6147 253.308C67.6147 252.333 67.8187 251.483 68.2267 250.758C68.6461 250.033 69.2127 249.477 69.9267 249.092C70.6521 248.707 71.4681 248.514 72.3747 248.514ZM72.3747 250.197C71.8761 250.197 71.4171 250.31 70.9977 250.537C70.5784 250.764 70.2384 251.115 69.9777 251.591C69.7284 252.056 69.6037 252.628 69.6037 253.308C69.6037 253.999 69.7284 254.577 69.9777 255.042C70.2384 255.507 70.5784 255.852 70.9977 256.079C71.4171 256.306 71.8761 256.419 72.3747 256.419C72.8734 256.419 73.3324 256.306 73.7517 256.079C74.1711 255.852 74.5054 255.507 74.7547 255.042C75.0154 254.577 75.1457 253.999 75.1457 253.308C75.1457 252.628 75.0154 252.056 74.7547 251.591C74.5054 251.115 74.1711 250.764 73.7517 250.537C73.3324 250.31 72.8734 250.197 72.3747 250.197ZM80.5619 247.018C80.1879 247.018 79.8819 246.916 79.6439 246.712C79.4173 246.508 79.3039 246.242 79.3039 245.913C79.3039 245.584 79.4173 245.312 79.6439 245.097C79.8819 244.882 80.1879 244.774 80.5619 244.774C80.9359 244.774 81.2363 244.882 81.4629 245.097C81.6896 245.312 81.8029 245.584 81.8029 245.913C81.8029 246.242 81.6896 246.508 81.4629 246.712C81.2363 246.916 80.9359 247.018 80.5619 247.018ZM77.8419 260.754H78.5049C78.8789 260.754 79.1509 260.669 79.3209 260.499C79.5023 260.34 79.5929 260.063 79.5929 259.666V248.633H81.5479V259.683C81.5479 261.53 80.6186 262.454 78.7599 262.454H77.8419V260.754ZM93.0716 252.866C93.0716 253.183 93.0489 253.461 93.0035 253.699H85.7955C85.8295 254.662 86.0959 255.376 86.5945 255.841C87.0932 256.306 87.7109 256.538 88.4475 256.538C89.0935 256.538 89.6376 256.374 90.0796 256.045C90.5329 255.716 90.8105 255.28 90.9126 254.736H92.9866C92.8619 255.393 92.6012 255.977 92.2046 256.487C91.8079 256.997 91.2922 257.399 90.6575 257.694C90.0229 257.977 89.3145 258.119 88.5325 258.119C87.6259 258.119 86.8212 257.926 86.1185 257.541C85.4272 257.156 84.8832 256.6 84.4865 255.875C84.0899 255.15 83.8915 254.294 83.8915 253.308C83.8915 252.333 84.0899 251.483 84.4865 250.758C84.8832 250.033 85.4272 249.477 86.1185 249.092C86.8212 248.707 87.6259 248.514 88.5325 248.514C89.4505 248.514 90.2495 248.707 90.9295 249.092C91.6209 249.466 92.1479 249.987 92.5106 250.656C92.8846 251.313 93.0716 252.05 93.0716 252.866ZM91.1165 252.815C91.1392 252.203 91.0315 251.693 90.7936 251.285C90.5669 250.866 90.2495 250.56 89.8416 250.367C89.4449 250.163 89.0085 250.061 88.5325 250.061C87.7732 250.061 87.1385 250.293 86.6285 250.758C86.1185 251.223 85.8409 251.908 85.7955 252.815H91.1165ZM99.6177 248.514C100.83 248.514 101.833 248.837 102.627 249.483C103.42 250.118 103.913 250.985 104.106 252.084H102.049C101.935 251.495 101.658 251.036 101.216 250.707C100.785 250.367 100.241 250.197 99.5837 250.197C98.8357 250.197 98.2124 250.463 97.7137 250.996C97.2151 251.517 96.9657 252.288 96.9657 253.308C96.9657 254.328 97.2151 255.104 97.7137 255.637C98.2124 256.17 98.8357 256.436 99.5837 256.436C100.241 256.436 100.785 256.266 101.216 255.926C101.658 255.586 101.935 255.121 102.049 254.532H104.106C103.913 255.631 103.42 256.504 102.627 257.15C101.833 257.796 100.83 258.119 99.6177 258.119C98.7111 258.119 97.9064 257.926 97.2037 257.541C96.5124 257.156 95.9684 256.6 95.5717 255.875C95.1751 255.15 94.9767 254.294 94.9767 253.308C94.9767 252.333 95.1751 251.483 95.5717 250.758C95.9684 250.033 96.5124 249.477 97.2037 249.092C97.9064 248.707 98.7111 248.514 99.6177 248.514ZM111.197 256.317V258H110.007C109.01 258 108.25 257.762 107.729 257.286C107.219 256.799 106.964 255.994 106.964 254.872V250.282H105.621V248.633H106.964V246.304H108.919V248.633H111.18V250.282H108.919V254.906C108.919 255.439 109.015 255.807 109.208 256.011C109.412 256.215 109.763 256.317 110.262 256.317H111.197Z" fill="#396DF2"/>
<rect x="0.5" y="228.5" width="123" height="47" rx="7.5" stroke="#6070FF"/>
</g>
<defs>
<clipPath id="clip0_39_288">
<rect width="295" height="288" fill="white"/>
</clipPath>
<clipPath id="clip1_39_288">
<rect width="295" height="80" fill="white"/>
</clipPath>
<clipPath id="clip2_39_288">
<rect width="236" height="32" fill="white" transform="translate(0 48)"/>
</clipPath>
<clipPath id="clip3_39_288">
<rect width="203" height="24" fill="white" transform="translate(0 180)"/>
</clipPath>
</defs>
</svg>
